{"glyphs":{"0":{"ha":819,"x_min":69,"x_max":750,"o":"m 69 972 l 750 972 l 750 0 l 69 0 l 69 972 m 361 778 l 361 194 l 458 194 l 458 778 l 361 778 z "},"1":{"ha":625,"x_min":69,"x_max":556,"o":"m 264 681 l 69 681 l 69 875 l 264 875 l 264 972 l 556 972 l 556 0 l 264 0 l 264 681 z "},"2":{"ha":819,"x_min":69,"x_max":750,"o":"m 69 583 l 458 583 l 458 778 l 69 778 l 69 972 l 750 972 l 750 389 l 361 389 l 361 194 l 750 194 l 750 0 l 69 0 l 69 583 z "},"3":{"ha":819,"x_min":69,"x_max":750,"o":"m 69 194 l 458 194 l 458 389 l 167 389 l 167 583 l 458 583 l 458 778 l 69 778 l 69 972 l 750 972 l 750 0 l 69 0 l 69 194 z "},"4":{"ha":819,"x_min":69,"x_max":750,"o":"m 458 194 l 69 194 l 69 583 l 167 583 l 167 778 l 264 778 l 264 875 l 458 875 l 458 972 l 750 972 l 750 0 l 458 0 l 458 194 m 361 679 l 361 486 l 264 486 l 264 389 l 458 389 l 458 679 l 361 679 z "},"5":{"ha":819,"x_min":69,"x_max":750,"o":"m 69 194 l 458 194 l 458 389 l 69 389 l 69 972 l 750 972 l 750 778 l 361 778 l 361 583 l 750 583 l 750 0 l 69 0 l 69 194 z "},"6":{"ha":819,"x_min":69,"x_max":750,"o":"m 69 972 l 750 972 l 750 778 l 361 778 l 361 583 l 750 583 l 750 0 l 69 0 l 69 972 m 361 389 l 361 194 l 458 194 l 458 389 l 361 389 z "},"7":{"ha":819,"x_min":69,"x_max":750,"o":"m 167 194 l 264 194 l 264 389 l 361 389 l 361 583 l 458 583 l 458 778 l 69 778 l 69 972 l 750 972 l 750 583 l 653 583 l 653 389 l 556 389 l 556 194 l 458 194 l 458 0 l 167 0 l 167 194 z "},"8":{"ha":819,"x_min":69,"x_max":750,"o":"m 69 486 l 167 486 l 167 583 l 69 583 l 69 972 l 750 972 l 750 583 l 653 583 l 653 486 l 750 486 l 750 0 l 69 0 l 69 486 m 361 778 l 361 583 l 458 583 l 458 778 l 361 778 m 361 389 l 361 194 l 458 194 l 458 389 l 361 389 z "},"9":{"ha":819,"x_min":69,"x_max":750,"o":"m 69 194 l 458 194 l 458 389 l 69 389 l 69 972 l 750 972 l 750 0 l 69 0 l 69 194 m 361 778 l 361 583 l 458 583 l 458 778 l 361 778 z "},"\r":{"ha":278,"x_min":0,"x_max":0,"o":""}," ":{"ha":278,"x_min":0,"x_max":0,"o":""},"!":{"ha":431,"x_min":69,"x_max":361,"o":"m 69 972 l 361 972 l 361 389 l 69 389 l 69 972 m 69 292 l 361 292 l 361 0 l 69 0 l 69 292 z "},"\"":{"ha":819,"x_min":69,"x_max":750,"o":"m 69 972 l 361 972 l 361 486 l 69 486 l 69 972 m 458 972 l 750 972 l 750 486 l 458 486 l 458 972 z "},"#":{"ha":1014,"x_min":69,"x_max":944,"o":"m 556 194 l 458 194 l 458 0 l 167 0 l 167 194 l 69 194 l 69 389 l 167 389 l 167 583 l 69 583 l 69 778 l 167 778 l 167 972 l 458 972 l 458 778 l 556 778 l 556 972 l 847 972 l 847 778 l 944 778 l 944 583 l 847 583 l 847 389 l 944 389 l 944 194 l 847 194 l 847 0 l 556 0 l 556 194 m 458 583 l 458 389 l 556 389 l 556 583 l 458 583 z "},"$":{"ha":819,"x_min":69,"x_max":750,"o":"m 507 -69 l 313 -69 l 313 97 l 69 97 l 69 292 l 458 292 l 458 389 l 69 389 l 69 875 l 313 875 l 313 1042 l 507 1042 l 507 875 l 750 875 l 750 681 l 361 681 l 361 583 l 750 583 l 750 97 l 507 97 l 507 -69 z "},"%":{"ha":1014,"x_min":69,"x_max":944,"o":"m 69 292 l 264 292 l 264 486 l 458 486 l 458 778 l 653 778 l 653 972 l 944 972 l 944 681 l 750 681 l 750 486 l 556 486 l 556 194 l 361 194 l 361 0 l 69 0 l 69 292 m 69 972 l 361 972 l 361 681 l 69 681 l 69 972 m 653 292 l 944 292 l 944 0 l 653 0 l 653 292 z "},"&":{"ha":1014,"x_min":69,"x_max":944,"o":"m 69 582 l 167 583 l 167 972 l 653 972 l 653 583 l 847 583 l 847 389 l 750 389 l 750 194 l 944 194 l 944 0 l 69 0 l 69 582 m 361 778 l 361 583 l 458 583 l 458 778 l 361 778 m 361 389 l 361 194 l 458 194 l 458 389 l 361 389 z "},"'":{"ha":431,"x_min":69,"x_max":361,"o":"m 69 972 l 361 972 l 361 486 l 69 486 l 69 972 z "},"(":{"ha":819,"x_min":69,"x_max":750,"o":"m 264 194 l 69 194 l 69 778 l 264 778 l 264 972 l 750 972 l 750 778 l 557 778 l 557 583 l 361 583 l 361 389 l 556 389 l 556 194 l 750 194 l 750 0 l 264 0 l 264 194 z "},")":{"ha":819,"x_min":69,"x_max":750,"o":"m 69 194 l 264 194 l 264 389 l 458 389 l 458 583 l 263 583 l 263 778 l 69 778 l 69 972 l 556 972 l 556 778 l 750 778 l 750 194 l 556 194 l 556 0 l 69 0 l 69 194 z "},"*":{"ha":722,"x_min":69,"x_max":653,"o":"m 458 486 l 264 486 l 264 389 l 69 389 l 69 583 l 167 583 l 167 778 l 69 778 l 69 972 l 264 972 l 264 875 l 458 875 l 458 972 l 653 972 l 653 778 l 556 778 l 556 583 l 653 583 l 653 389 l 458 389 l 458 486 z "},"+":{"ha":722,"x_min":69,"x_max":653,"o":"m 264 389 l 69 389 l 69 583 l 264 583 l 264 778 l 458 778 l 458 583 l 653 583 l 653 389 l 458 389 l 458 194 l 264 194 l 264 389 z "},",":{"ha":431,"x_min":69,"x_max":361,"o":"m 167 0 l 69 0 l 69 292 l 361 292 l 361 -194 l 167 -194 l 167 0 z "},"-":{"ha":625,"x_min":69,"x_max":556,"o":"m 69 583 l 556 583 l 556 389 l 69 389 l 69 583 z "},".":{"ha":431,"x_min":69,"x_max":361,"o":"m 69 292 l 361 292 l 361 0 l 69 0 l 69 292 z "},"/":{"ha":1014,"x_min":69,"x_max":944,"o":"m 69 292 l 264 292 l 264 486 l 458 486 l 458 778 l 653 778 l 653 972 l 944 972 l 944 681 l 750 681 l 750 486 l 556 486 l 556 194 l 361 194 l 361 0 l 69 0 l 69 292 z "},":":{"ha":431,"x_min":69,"x_max":361,"o":"m 69 778 l 361 778 l 361 486 l 69 486 l 69 778 m 69 292 l 361 292 l 361 0 l 69 0 l 69 292 z "},";":{"ha":431,"x_min":69,"x_max":361,"o":"m 69 778 l 361 778 l 361 486 l 69 486 l 69 778 m 167 0 l 69 0 l 69 292 l 361 292 l 361 -194 l 167 -194 l 167 0 z "},"<":{"ha":819,"x_min":69,"x_max":750,"o":"m 458 243 l 264 243 l 264 340 l 69 340 l 69 632 l 264 632 l 264 729 l 458 729 l 458 826 l 750 826 l 750 632 l 556 632 l 556 535 l 361 535 l 361 438 l 556 438 l 556 340 l 750 340 l 750 146 l 458 146 l 458 243 z "},"=":{"ha":722,"x_min":69,"x_max":653,"o":"m 69 778 l 653 778 l 653 583 l 69 583 l 69 778 m 69 389 l 653 389 l 653 194 l 69 194 l 69 389 z "},">":{"ha":819,"x_min":69,"x_max":750,"o":"m 556 243 l 361 243 l 361 146 l 69 146 l 69 340 l 264 340 l 264 438 l 458 438 l 458 535 l 264 535 l 264 632 l 69 632 l 69 826 l 361 826 l 361 729 l 556 729 l 556 632 l 750 632 l 750 340 l 556 340 l 556 243 z "},"?":{"ha":917,"x_min":69,"x_max":847,"o":"m 653 389 l 361 389 l 361 583 l 458 583 l 458 778 l 264 778 l 264 583 l 69 583 l 69 875 l 167 875 l 167 972 l 750 972 l 750 875 l 847 875 l 847 486 l 653 486 l 653 389 m 361 292 l 653 292 l 653 0 l 361 0 l 361 292 z "},"@":{"ha":1315,"x_min":69,"x_max":1246,"o":"m 69 -97 l 69 875 l 167 875 l 167 972 l 1149 972 l 1149 875 l 1246 875 l 1246 97 l 503 97 l 503 625 l 847 625 l 847 431 l 750 431 l 750 292 l 954 292 l 954 778 l 361 778 l 361 0 l 954 0 l 954 -194 l 167 -194 l 167 -97 l 69 -97 z "},"A":{"ha":819,"x_min":69,"x_max":750,"o":"m 458 389 l 361 389 l 361 0 l 69 0 l 69 972 l 750 972 l 750 0 l 458 0 l 458 389 m 361 778 l 361 583 l 458 583 l 458 778 l 361 778 z "},"B":{"ha":819,"x_min":69,"x_max":750,"o":"m 69 972 l 750 972 l 750 583 l 653 583 l 653 486 l 750 486 l 750 0 l 69 0 l 69 972 m 361 778 l 361 583 l 458 583 l 458 778 l 361 778 m 361 389 l 361 194 l 458 194 l 458 389 l 361 389 z "},"C":{"ha":722,"x_min":69,"x_max":653,"o":"m 69 972 l 653 972 l 653 778 l 361 778 l 361 194 l 653 194 l 653 0 l 69 0 l 69 972 z "},"D":{"ha":819,"x_min":69,"x_max":750,"o":"m 69 972 l 653 972 l 653 875 l 750 875 l 750 97 l 653 97 l 653 0 l 69 0 l 69 972 m 361 778 l 361 194 l 458 194 l 458 778 l 361 778 z "},"E":{"ha":819,"x_min":69,"x_max":750,"o":"m 69 972 l 750 972 l 750 778 l 361 778 l 361 583 l 653 583 l 653 389 l 361 389 l 361 194 l 750 194 l 750 0 l 69 0 l 69 972 z "},"F":{"ha":819,"x_min":69,"x_max":750,"o":"m 69 972 l 750 972 l 750 778 l 361 778 l 361 583 l 653 583 l 653 389 l 361 389 l 361 0 l 69 0 l 69 972 z "},"G":{"ha":819,"x_min":69,"x_max":750,"o":"m 69 972 l 750 972 l 750 778 l 361 778 l 361 194 l 458 194 l 458 583 l 750 583 l 750 0 l 69 0 l 69 972 z "},"H":{"ha":819,"x_min":69,"x_max":750,"o":"m 458 389 l 361 389 l 361 0 l 69 0 l 69 972 l 361 972 l 361 583 l 458 583 l 458 972 l 750 972 l 750 0 l 458 0 l 458 389 z "},"I":{"ha":431,"x_min":69,"x_max":361,"o":"m 69 972 l 361 972 l 361 0 l 69 0 l 69 972 z "},"J":{"ha":819,"x_min":69,"x_max":750,"o":"m 69 389 l 361 389 l 361 194 l 458 194 l 458 972 l 750 972 l 750 0 l 69 0 l 69 389 z "},"K":{"ha":819,"x_min":69,"x_max":750,"o":"m 458 292 l 361 292 l 361 0 l 69 0 l 69 972 l 361 972 l 361 681 l 458 681 l 458 972 l 750 972 l 750 583 l 556 583 l 556 486 l 750 486 l 750 0 l 458 0 l 458 292 z "},"L":{"ha":722,"x_min":69,"x_max":653,"o":"m 69 972 l 361 972 l 361 194 l 653 194 l 653 0 l 69 0 l 69 972 z "},"M":{"ha":1111,"x_min":69,"x_max":1042,"o":"m 750 389 l 653 389 l 653 194 l 458 194 l 458 389 l 361 389 l 361 0 l 69 0 l 69 972 l 361 972 l 361 778 l 458 778 l 458 583 l 653 583 l 653 778 l 750 778 l 750 972 l 1042 972 l 1042 0 l 750 0 l 750 389 z "},"N":{"ha":917,"x_min":69,"x_max":847,"o":"m 556 194 l 458 194 l 458 389 l 361 389 l 361 0 l 69 0 l 69 972 l 361 972 l 361 778 l 458 778 l 458 583 l 556 583 l 556 972 l 847 972 l 847 0 l 556 0 l 556 194 z "},"O":{"ha":819,"x_min":69,"x_max":750,"o":"m 69 972 l 750 972 l 750 0 l 69 0 l 69 972 m 361 778 l 361 194 l 458 194 l 458 778 l 361 778 z "},"P":{"ha":819,"x_min":69,"x_max":750,"o":"m 69 972 l 750 972 l 750 389 l 361 389 l 361 0 l 69 0 l 69 972 m 361 778 l 361 583 l 458 583 l 458 778 l 361 778 z "},"Q":{"ha":847,"x_min":69,"x_max":847,"o":"m 69 972 l 750 972 l 750 194 l 847 194 l 847 0 l 69 0 l 69 972 m 361 778 l 361 194 l 458 194 l 458 778 l 361 778 z "},"R":{"ha":819,"x_min":69,"x_max":750,"o":"m 458 389 l 361 389 l 361 0 l 69 0 l 69 972 l 750 972 l 750 583 l 653 583 l 653 486 l 750 486 l 750 0 l 458 0 l 458 389 m 361 778 l 361 583 l 458 583 l 458 778 l 361 778 z "},"S":{"ha":819,"x_min":69,"x_max":750,"o":"m 69 194 l 458 194 l 458 389 l 69 389 l 69 972 l 750 972 l 750 778 l 361 778 l 361 583 l 750 583 l 750 0 l 69 0 l 69 194 z "},"T":{"ha":819,"x_min":69,"x_max":750,"o":"m 264 778 l 69 778 l 69 972 l 750 972 l 750 778 l 556 778 l 556 0 l 264 0 l 264 778 z "},"U":{"ha":819,"x_min":69,"x_max":750,"o":"m 69 972 l 361 972 l 361 194 l 458 194 l 458 972 l 750 972 l 750 0 l 69 0 l 69 972 z "},"V":{"ha":819,"x_min":69,"x_max":750,"o":"m 264 194 l 167 194 l 167 389 l 69 389 l 69 972 l 361 972 l 361 583 l 458 583 l 458 972 l 750 972 l 750 389 l 653 389 l 653 194 l 556 194 l 556 0 l 264 0 l 264 194 z "},"W":{"ha":1111,"x_min":69,"x_max":1042,"o":"m 653 292 l 458 292 l 458 0 l 167 0 l 167 194 l 69 194 l 69 972 l 361 972 l 361 486 l 458 486 l 458 681 l 653 681 l 653 486 l 750 486 l 750 972 l 1042 972 l 1042 194 l 944 194 l 944 0 l 653 0 l 653 292 z "},"X":{"ha":819,"x_min":69,"x_max":750,"o":"m 458 292 l 361 292 l 361 0 l 69 0 l 69 486 l 264 486 l 264 583 l 69 583 l 69 972 l 361 972 l 361 681 l 458 681 l 458 972 l 750 972 l 750 583 l 556 583 l 556 486 l 750 486 l 750 0 l 458 0 l 458 292 z "},"Y":{"ha":819,"x_min":69,"x_max":750,"o":"m 264 486 l 69 486 l 69 972 l 361 972 l 361 681 l 458 681 l 458 972 l 750 972 l 750 486 l 556 486 l 556 0 l 264 0 l 264 486 z "},"Z":{"ha":819,"x_min":69,"x_max":750,"o":"m 69 486 l 264 486 l 264 583 l 458 583 l 458 778 l 69 778 l 69 972 l 750 972 l 750 486 l 556 486 l 556 389 l 361 389 l 361 194 l 750 194 l 750 0 l 69 0 l 69 486 z "},"[":{"ha":639,"x_min":69,"x_max":569,"o":"m 69 972 l 569 972 l 569 778 l 361 778 l 361 194 l 569 194 l 569 0 l 69 0 l 69 972 z "},"\\":{"ha":1014,"x_min":69,"x_max":944,"o":"m 653 194 l 458 194 l 458 486 l 264 486 l 264 681 l 69 681 l 69 972 l 361 972 l 361 778 l 556 778 l 556 486 l 750 486 l 750 292 l 944 292 l 944 0 l 653 0 l 653 194 z "},"]":{"ha":639,"x_min":69,"x_max":569,"o":"m 69 194 l 278 194 l 278 778 l 69 778 l 69 972 l 569 972 l 569 0 l 69 0 l 69 194 z "},"^":{"ha":625,"x_min":69,"x_max":556,"o":"m 361 778 l 264 778 l 264 681 l 69 681 l 69 875 l 167 875 l 167 972 l 458 972 l 458 875 l 556 875 l 556 681 l 361 681 l 361 778 z "},"_":{"ha":1111,"x_min":69,"x_max":1042,"o":"m 69 0 l 1042 0 l 1042 -194 l 69 -194 l 69 0 z "},"`":{"ha":431,"x_min":69,"x_max":361,"o":"m 167 1139 l 69 1139 l 69 1333 l 264 1333 l 264 1236 l 361 1236 l 361 1042 l 167 1042 l 167 1139 z "},"a":{"ha":819,"x_min":69,"x_max":750,"o":"m 458 389 l 361 389 l 361 0 l 69 0 l 69 972 l 750 972 l 750 0 l 458 0 l 458 389 m 361 778 l 361 583 l 458 583 l 458 778 l 361 778 z "},"b":{"ha":819,"x_min":69,"x_max":750,"o":"m 69 972 l 750 972 l 750 583 l 653 583 l 653 486 l 750 486 l 750 0 l 69 0 l 69 972 m 361 778 l 361 583 l 458 583 l 458 778 l 361 778 m 361 389 l 361 194 l 458 194 l 458 389 l 361 389 z "},"c":{"ha":722,"x_min":69,"x_max":653,"o":"m 69 972 l 653 972 l 653 778 l 361 778 l 361 194 l 653 194 l 653 0 l 69 0 l 69 972 z "},"d":{"ha":819,"x_min":69,"x_max":750,"o":"m 69 972 l 653 972 l 653 875 l 750 875 l 750 97 l 653 97 l 653 0 l 69 0 l 69 972 m 361 778 l 361 194 l 458 194 l 458 778 l 361 778 z "},"e":{"ha":819,"x_min":69,"x_max":750,"o":"m 69 972 l 750 972 l 750 778 l 361 778 l 361 583 l 653 583 l 653 389 l 361 389 l 361 194 l 750 194 l 750 0 l 69 0 l 69 972 z "},"f":{"ha":819,"x_min":69,"x_max":750,"o":"m 69 972 l 750 972 l 750 778 l 361 778 l 361 583 l 653 583 l 653 389 l 361 389 l 361 0 l 69 0 l 69 972 z "},"g":{"ha":819,"x_min":69,"x_max":750,"o":"m 69 972 l 750 972 l 750 778 l 361 778 l 361 194 l 458 194 l 458 583 l 750 583 l 750 0 l 69 0 l 69 972 z "},"h":{"ha":819,"x_min":69,"x_max":750,"o":"m 458 389 l 361 389 l 361 0 l 69 0 l 69 972 l 361 972 l 361 583 l 458 583 l 458 972 l 750 972 l 750 0 l 458 0 l 458 389 z "},"i":{"ha":431,"x_min":69,"x_max":361,"o":"m 69 972 l 361 972 l 361 0 l 69 0 l 69 972 z "},"j":{"ha":819,"x_min":69,"x_max":750,"o":"m 69 389 l 361 389 l 361 194 l 458 194 l 458 972 l 750 972 l 750 0 l 69 0 l 69 389 z "},"k":{"ha":819,"x_min":69,"x_max":750,"o":"m 458 292 l 361 292 l 361 0 l 69 0 l 69 972 l 361 972 l 361 681 l 458 681 l 458 972 l 750 972 l 750 583 l 556 583 l 556 486 l 750 486 l 750 0 l 458 0 l 458 292 z "},"l":{"ha":722,"x_min":69,"x_max":653,"o":"m 69 972 l 361 972 l 361 194 l 653 194 l 653 0 l 69 0 l 69 972 z "},"m":{"ha":1111,"x_min":69,"x_max":1042,"o":"m 750 389 l 653 389 l 653 194 l 458 194 l 458 389 l 361 389 l 361 0 l 69 0 l 69 972 l 361 972 l 361 778 l 458 778 l 458 583 l 653 583 l 653 778 l 750 778 l 750 972 l 1042 972 l 1042 0 l 750 0 l 750 389 z "},"n":{"ha":917,"x_min":69,"x_max":847,"o":"m 556 194 l 458 194 l 458 389 l 361 389 l 361 0 l 69 0 l 69 972 l 361 972 l 361 778 l 458 778 l 458 583 l 556 583 l 556 972 l 847 972 l 847 0 l 556 0 l 556 194 z "},"o":{"ha":819,"x_min":69,"x_max":750,"o":"m 69 972 l 750 972 l 750 0 l 69 0 l 69 972 m 361 778 l 361 194 l 458 194 l 458 778 l 361 778 z "},"p":{"ha":819,"x_min":69,"x_max":750,"o":"m 69 972 l 750 972 l 750 389 l 361 389 l 361 0 l 69 0 l 69 972 m 361 778 l 361 583 l 458 583 l 458 778 l 361 778 z "},"q":{"ha":847,"x_min":69,"x_max":847,"o":"m 69 972 l 750 972 l 750 194 l 847 194 l 847 0 l 69 0 l 69 972 m 361 778 l 361 194 l 458 194 l 458 778 l 361 778 z "},"r":{"ha":819,"x_min":69,"x_max":750,"o":"m 458 389 l 361 389 l 361 0 l 69 0 l 69 972 l 750 972 l 750 583 l 653 583 l 653 486 l 750 486 l 750 0 l 458 0 l 458 389 m 361 778 l 361 583 l 458 583 l 458 778 l 361 778 z "},"s":{"ha":819,"x_min":69,"x_max":750,"o":"m 69 194 l 458 194 l 458 389 l 69 389 l 69 972 l 750 972 l 750 778 l 361 778 l 361 583 l 750 583 l 750 0 l 69 0 l 69 194 z "},"t":{"ha":819,"x_min":69,"x_max":750,"o":"m 264 778 l 69 778 l 69 972 l 750 972 l 750 778 l 556 778 l 556 0 l 264 0 l 264 778 z "},"u":{"ha":819,"x_min":69,"x_max":750,"o":"m 69 972 l 361 972 l 361 194 l 458 194 l 458 972 l 750 972 l 750 0 l 69 0 l 69 972 z "},"v":{"ha":819,"x_min":69,"x_max":750,"o":"m 264 194 l 167 194 l 167 389 l 69 389 l 69 972 l 361 972 l 361 583 l 458 583 l 458 972 l 750 972 l 750 389 l 653 389 l 653 194 l 556 194 l 556 0 l 264 0 l 264 194 z "},"w":{"ha":1111,"x_min":69,"x_max":1042,"o":"m 653 292 l 458 292 l 458 0 l 167 0 l 167 194 l 69 194 l 69 972 l 361 972 l 361 486 l 458 486 l 458 681 l 653 681 l 653 486 l 750 486 l 750 972 l 1042 972 l 1042 194 l 944 194 l 944 0 l 653 0 l 653 292 z "},"x":{"ha":819,"x_min":69,"x_max":750,"o":"m 458 292 l 361 292 l 361 0 l 69 0 l 69 486 l 264 486 l 264 583 l 69 583 l 69 972 l 361 972 l 361 681 l 458 681 l 458 972 l 750 972 l 750 583 l 556 583 l 556 486 l 750 486 l 750 0 l 458 0 l 458 292 z "},"y":{"ha":819,"x_min":69,"x_max":750,"o":"m 264 486 l 69 486 l 69 972 l 361 972 l 361 681 l 458 681 l 458 972 l 750 972 l 750 486 l 556 486 l 556 0 l 264 0 l 264 486 z "},"z":{"ha":819,"x_min":69,"x_max":750,"o":"m 69 486 l 264 486 l 264 583 l 458 583 l 458 778 l 69 778 l 69 972 l 750 972 l 750 486 l 556 486 l 556 389 l 361 389 l 361 194 l 750 194 l 750 0 l 69 0 l 69 486 z "},"{":{"ha":722,"x_min":69,"x_max":653,"o":"m 167 389 l 69 389 l 69 583 l 167 583 l 167 972 l 653 972 l 653 778 l 460 778 l 460 583 l 361 583 l 361 389 l 458 389 l 458 194 l 653 194 l 653 0 l 167 0 l 167 389 z "},"|":{"ha":431,"x_min":69,"x_max":361,"o":"m 69 972 l 361 972 l 361 -347 l 69 -347 l 69 972 z "},"}":{"ha":722,"x_min":69,"x_max":653,"o":"m 69 194 l 264 194 l 264 389 l 361 389 l 361 583 l 263 583 l 263 778 l 69 778 l 69 972 l 556 972 l 556 583 l 653 583 l 653 389 l 556 389 l 556 0 l 69 0 l 69 194 z "},"~":{"ha":722,"x_min":69,"x_max":653,"o":"m 556 681 l 361 681 l 361 778 l 264 778 l 264 681 l 69 681 l 69 875 l 167 875 l 167 972 l 361 972 l 361 875 l 458 875 l 458 972 l 653 972 l 653 778 l 556 778 l 556 681 z "}," ":{"ha":694,"x_min":0,"x_max":0,"o":""},"¡":{"ha":431,"x_min":69,"x_max":361,"o":"m 69 972 l 361 972 l 361 681 l 69 681 l 69 972 m 69 583 l 361 583 l 361 0 l 69 0 l 69 583 z "},"¢":{"ha":722,"x_min":69,"x_max":653,"o":"m 264 194 l 69 194 l 69 778 l 264 778 l 264 972 l 458 972 l 458 778 l 653 778 l 653 583 l 361 583 l 361 389 l 653 389 l 653 194 l 458 194 l 458 0 l 264 0 l 264 194 z "},"£":{"ha":819,"x_min":69,"x_max":750,"o":"m 69 194 l 167 194 l 167 389 l 69 389 l 69 583 l 167 583 l 167 875 l 264 875 l 264 972 l 653 972 l 653 778 l 458 778 l 458 583 l 653 583 l 653 389 l 458 389 l 458 194 l 750 194 l 750 0 l 69 0 l 69 194 z "},"¥":{"ha":819,"x_min":69,"x_max":750,"o":"m 264 194 l 69 194 l 69 389 l 264 389 l 264 486 l 69 486 l 69 972 l 361 972 l 361 681 l 458 681 l 458 972 l 750 972 l 750 486 l 556 486 l 556 389 l 750 389 l 750 194 l 556 194 l 556 0 l 264 0 l 264 194 z "},"¦":{"ha":431,"x_min":69,"x_max":361,"o":"m 69 972 l 361 972 l 361 410 l 69 410 l 69 972 m 69 215 l 361 215 l 361 -347 l 69 -347 l 69 215 z "},"¨":{"ha":625,"x_min":69,"x_max":556,"o":"m 69 1236 l 264 1236 l 264 1042 l 69 1042 l 69 1236 m 361 1236 l 556 1236 l 556 1042 l 361 1042 l 361 1236 z "},"©":{"ha":1111,"x_min":69,"x_max":1042,"o":"m 944 97 l 847 97 l 847 0 l 264 0 l 264 97 l 167 97 l 167 194 l 69 194 l 69 778 l 167 778 l 167 875 l 264 875 l 264 972 l 847 972 l 847 875 l 944 875 l 944 778 l 1042 778 l 1042 194 l 944 194 l 944 97 m 750 778 l 750 875 l 361 875 l 361 778 l 264 778 l 264 194 l 361 194 l 361 97 l 750 97 l 750 194 l 847 194 l 847 778 l 750 778 m 458 292 l 361 292 l 361 681 l 458 681 l 458 778 l 653 778 l 653 681 l 750 681 l 750 583 l 556 583 l 556 389 l 750 389 l 750 292 l 653 292 l 653 194 l 458 194 l 458 292 z "},"«":{"ha":1111,"x_min":69,"x_max":1042,"o":"m 361 292 l 214 292 l 214 389 l 69 389 l 69 583 l 214 583 l 214 681 l 361 681 l 361 778 l 556 778 l 556 632 l 458 632 l 458 535 l 361 535 l 361 438 l 458 438 l 458 389 l 556 389 l 556 194 l 361 194 l 361 292 m 847 292 l 700 292 l 700 389 l 556 389 l 556 583 l 700 583 l 700 681 l 847 681 l 847 778 l 1042 778 l 1042 632 l 944 632 l 944 535 l 847 535 l 847 438 l 944 438 l 944 389 l 1042 389 l 1042 194 l 847 194 l 847 292 z "},"¬":{"ha":722,"x_min":69,"x_max":653,"o":"m 458 389 l 69 389 l 69 583 l 653 583 l 653 194 l 458 194 l 458 389 z "},"­":{"ha":625,"x_min":69,"x_max":556,"o":"m 69 583 l 556 583 l 556 389 l 69 389 l 69 583 z "},"®":{"ha":917,"x_min":69,"x_max":847,"o":"m 653 972 l 264 972 l 264 1069 l 653 1069 l 653 972 m 264 875 l 167 875 l 167 972 l 264 972 l 264 875 m 653 875 l 653 972 l 750 972 l 750 875 l 653 875 m 167 875 l 167 486 l 69 486 l 69 875 l 167 875 m 264 875 l 653 875 l 653 681 l 604 681 l 604 583 l 653 583 l 653 486 l 507 486 l 507 583 l 410 583 l 410 486 l 264 486 l 264 875 m 847 875 l 847 486 l 750 486 l 750 875 l 847 875 m 410 681 l 507 681 l 507 778 l 410 778 l 410 681 m 264 486 l 264 389 l 167 389 l 167 486 l 264 486 m 653 486 l 750 486 l 750 389 l 653 389 l 653 486 m 264 389 l 653 389 l 653 292 l 264 292 l 264 389 z "},"¯":{"ha":625,"x_min":69,"x_max":556,"o":"m 69 1236 l 556 1236 l 556 1042 l 69 1042 l 69 1236 z "},"°":{"ha":722,"x_min":69,"x_max":653,"o":"m 167 486 l 69 486 l 69 875 l 167 875 l 167 972 l 556 972 l 556 875 l 653 875 l 653 486 l 556 486 l 556 389 l 167 389 l 167 486 m 264 778 l 264 583 l 458 583 l 458 778 l 264 778 z "},"±":{"ha":722,"x_min":69,"x_max":653,"o":"m 264 583 l 69 583 l 69 778 l 264 778 l 264 972 l 458 972 l 458 778 l 653 778 l 653 583 l 458 583 l 458 389 l 264 389 l 264 583 m 69 194 l 653 194 l 653 0 l 69 0 l 69 194 z "},"´":{"ha":431,"x_min":69,"x_max":361,"o":"m 264 1042 l 69 1042 l 69 1236 l 167 1236 l 167 1333 l 361 1333 l 361 1139 l 264 1139 l 264 1042 z "},"¶":{"ha":1111,"x_min":69,"x_max":1042,"o":"m 750 389 l 653 389 l 653 -194 l 361 -194 l 361 389 l 167 389 l 167 583 l 69 583 l 69 778 l 167 778 l 167 972 l 1042 972 l 1042 -194 l 750 -194 l 750 389 m 653 778 l 653 583 l 750 583 l 750 778 l 653 778 z "},"·":{"ha":431,"x_min":69,"x_max":361,"o":"m 69 632 l 361 632 l 361 340 l 69 340 l 69 632 z "},"¸":{"ha":431,"x_min":69,"x_max":361,"o":"m 69 -153 l 167 -153 l 167 28 l 361 28 l 361 -347 l 69 -347 l 69 -153 z "},"»":{"ha":1111,"x_min":69,"x_max":1042,"o":"m 556 583 l 556 389 l 411 389 l 411 292 l 264 292 l 264 194 l 69 194 l 69 389 l 167 389 l 167 438 l 264 438 l 264 535 l 167 535 l 167 632 l 69 632 l 69 778 l 264 778 l 264 681 l 411 681 l 411 583 l 556 583 m 1042 583 l 1042 389 l 897 389 l 897 292 l 750 292 l 750 194 l 556 194 l 556 389 l 653 389 l 653 438 l 750 438 l 750 535 l 653 535 l 653 632 l 556 632 l 556 778 l 750 778 l 750 681 l 897 681 l 897 583 l 1042 583 z "},"¿":{"ha":917,"x_min":69,"x_max":847,"o":"m 264 972 l 556 972 l 556 681 l 264 681 l 264 972 m 167 97 l 69 97 l 69 486 l 264 486 l 264 583 l 556 583 l 556 389 l 458 389 l 458 194 l 653 194 l 653 389 l 847 389 l 847 97 l 750 97 l 750 0 l 167 0 l 167 97 z "},"À":{"ha":819,"x_min":69,"x_max":750,"o":"m 313 1139 l 215 1139 l 215 1333 l 410 1333 l 410 1236 l 507 1236 l 507 1042 l 313 1042 l 313 1139 m 458 389 l 361 389 l 361 0 l 69 0 l 69 972 l 750 972 l 750 0 l 458 0 l 458 389 m 361 778 l 361 583 l 458 583 l 458 778 l 361 778 z "},"Á":{"ha":819,"x_min":69,"x_max":750,"o":"m 507 1042 l 313 1042 l 313 1236 l 410 1236 l 410 1333 l 604 1333 l 604 1139 l 507 1139 l 507 1042 m 458 389 l 361 389 l 361 0 l 69 0 l 69 972 l 750 972 l 750 0 l 458 0 l 458 389 m 361 778 l 361 583 l 458 583 l 458 778 l 361 778 z "},"Â":{"ha":819,"x_min":69,"x_max":750,"o":"m 458 1139 l 361 1139 l 361 1042 l 167 1042 l 167 1236 l 264 1236 l 264 1333 l 556 1333 l 556 1236 l 653 1236 l 653 1042 l 458 1042 l 458 1139 m 458 389 l 361 389 l 361 0 l 69 0 l 69 972 l 750 972 l 750 0 l 458 0 l 458 389 m 361 778 l 361 583 l 458 583 l 458 778 l 361 778 z "},"Ã":{"ha":819,"x_min":69,"x_max":750,"o":"m 604 1042 l 410 1042 l 410 1139 l 313 1139 l 313 1042 l 118 1042 l 118 1236 l 215 1236 l 215 1333 l 410 1333 l 410 1236 l 507 1236 l 507 1333 l 701 1333 l 701 1139 l 604 1139 l 604 1042 m 458 389 l 361 389 l 361 0 l 69 0 l 69 972 l 750 972 l 750 0 l 458 0 l 458 389 m 361 778 l 361 583 l 458 583 l 458 778 l 361 778 z "},"Ä":{"ha":819,"x_min":69,"x_max":750,"o":"m 167 1236 l 361 1236 l 361 1042 l 167 1042 l 167 1236 m 458 1236 l 653 1236 l 653 1042 l 458 1042 l 458 1236 m 458 389 l 361 389 l 361 0 l 69 0 l 69 972 l 750 972 l 750 0 l 458 0 l 458 389 m 361 778 l 361 583 l 458 583 l 458 778 l 361 778 z "},"Å":{"ha":819,"x_min":69,"x_max":750,"o":"m 458 389 l 361 389 l 361 0 l 69 0 l 69 972 l 264 972 l 264 1069 l 167 1069 l 167 1278 l 264 1278 l 264 1375 l 556 1375 l 556 1278 l 653 1278 l 653 1069 l 556 1069 l 556 972 l 750 972 l 750 0 l 458 0 l 458 389 m 361 1222 l 361 1125 l 458 1125 l 458 1222 l 361 1222 m 361 778 l 361 583 l 458 583 l 458 778 l 361 778 z "},"Æ":{"ha":1208,"x_min":69,"x_max":1139,"o":"m 458 389 l 361 389 l 361 0 l 69 0 l 69 972 l 1139 972 l 1139 778 l 750 778 l 750 583 l 1042 583 l 1042 389 l 750 389 l 750 194 l 1139 194 l 1139 0 l 458 0 l 458 389 m 361 778 l 361 583 l 458 583 l 458 778 l 361 778 z "},"Ç":{"ha":722,"x_min":69,"x_max":653,"o":"m 215 -153 l 313 -153 l 313 0 l 69 0 l 69 972 l 653 972 l 653 778 l 361 778 l 361 194 l 653 194 l 653 0 l 507 0 l 507 -347 l 215 -347 l 215 -153 z "},"È":{"ha":819,"x_min":69,"x_max":750,"o":"m 361 1139 l 264 1139 l 264 1333 l 458 1333 l 458 1236 l 556 1236 l 556 1042 l 361 1042 l 361 1139 m 69 972 l 750 972 l 750 778 l 361 778 l 361 583 l 653 583 l 653 389 l 361 389 l 361 194 l 750 194 l 750 0 l 69 0 l 69 972 z "},"É":{"ha":819,"x_min":69,"x_max":750,"o":"m 507 1042 l 313 1042 l 313 1236 l 410 1236 l 410 1333 l 604 1333 l 604 1139 l 507 1139 l 507 1042 m 69 972 l 750 972 l 750 778 l 361 778 l 361 583 l 653 583 l 653 389 l 361 389 l 361 194 l 750 194 l 750 0 l 69 0 l 69 972 z "},"Ê":{"ha":819,"x_min":69,"x_max":750,"o":"m 458 1139 l 361 1139 l 361 1042 l 167 1042 l 167 1236 l 264 1236 l 264 1333 l 556 1333 l 556 1236 l 653 1236 l 653 1042 l 458 1042 l 458 1139 m 69 972 l 750 972 l 750 778 l 361 778 l 361 583 l 653 583 l 653 389 l 361 389 l 361 194 l 750 194 l 750 0 l 69 0 l 69 972 z "},"Ë":{"ha":819,"x_min":69,"x_max":750,"o":"m 167 1236 l 361 1236 l 361 1042 l 167 1042 l 167 1236 m 458 1236 l 653 1236 l 653 1042 l 458 1042 l 458 1236 m 69 972 l 750 972 l 750 778 l 361 778 l 361 583 l 653 583 l 653 389 l 361 389 l 361 194 l 750 194 l 750 0 l 69 0 l 69 972 z "},"Ì":{"ha":431,"x_min":21,"x_max":361,"o":"m 118 1139 l 21 1139 l 21 1333 l 215 1333 l 215 1236 l 313 1236 l 313 1042 l 118 1042 l 118 1139 m 69 972 l 361 972 l 361 0 l 69 0 l 69 972 z "},"Í":{"ha":431,"x_min":69,"x_max":410,"o":"m 313 1042 l 118 1042 l 118 1236 l 215 1236 l 215 1333 l 410 1333 l 410 1139 l 313 1139 l 313 1042 m 69 972 l 361 972 l 361 0 l 69 0 l 69 972 z "},"Î":{"ha":431,"x_min":-28,"x_max":458,"o":"m 264 1139 l 167 1139 l 167 1042 l -28 1042 l -28 1236 l 69 1236 l 69 1333 l 361 1333 l 361 1236 l 458 1236 l 458 1042 l 264 1042 l 264 1139 m 69 972 l 361 972 l 361 0 l 69 0 l 69 972 z "},"Ï":{"ha":431,"x_min":-28,"x_max":458,"o":"m -28 1236 l 167 1236 l 167 1042 l -28 1042 l -28 1236 m 264 1236 l 458 1236 l 458 1042 l 264 1042 l 264 1236 m 69 972 l 361 972 l 361 0 l 69 0 l 69 972 z "},"Ð":{"ha":1097,"x_min":69,"x_max":1028,"o":"m 208 389 l 69 389 l 69 583 l 208 583 l 208 972 l 931 972 l 931 875 l 1028 875 l 1028 97 l 931 97 l 931 0 l 208 0 l 208 389 m 500 778 l 500 583 l 639 583 l 639 389 l 500 389 l 500 194 l 736 194 l 736 778 l 500 778 z "},"Ñ":{"ha":917,"x_min":69,"x_max":847,"o":"m 653 1042 l 458 1042 l 458 1139 l 361 1139 l 361 1042 l 167 1042 l 167 1236 l 264 1236 l 264 1333 l 458 1333 l 458 1236 l 556 1236 l 556 1333 l 750 1333 l 750 1139 l 653 1139 l 653 1042 m 556 194 l 458 194 l 458 389 l 361 389 l 361 0 l 69 0 l 69 972 l 361 972 l 361 778 l 458 778 l 458 583 l 556 583 l 556 972 l 847 972 l 847 0 l 556 0 l 556 194 z "},"Ò":{"ha":819,"x_min":69,"x_max":750,"o":"m 313 1139 l 215 1139 l 215 1333 l 410 1333 l 410 1236 l 507 1236 l 507 1042 l 313 1042 l 313 1139 m 69 972 l 750 972 l 750 0 l 69 0 l 69 972 m 361 778 l 361 194 l 458 194 l 458 778 l 361 778 z "},"Ó":{"ha":819,"x_min":69,"x_max":750,"o":"m 507 1042 l 313 1042 l 313 1236 l 410 1236 l 410 1333 l 604 1333 l 604 1139 l 507 1139 l 507 1042 m 69 972 l 750 972 l 750 0 l 69 0 l 69 972 m 361 778 l 361 194 l 458 194 l 458 778 l 361 778 z "},"Ô":{"ha":819,"x_min":69,"x_max":750,"o":"m 458 1139 l 361 1139 l 361 1042 l 167 1042 l 167 1236 l 264 1236 l 264 1333 l 556 1333 l 556 1236 l 653 1236 l 653 1042 l 458 1042 l 458 1139 m 69 972 l 750 972 l 750 0 l 69 0 l 69 972 m 361 778 l 361 194 l 458 194 l 458 778 l 361 778 z "},"Õ":{"ha":819,"x_min":69,"x_max":750,"o":"m 604 1042 l 410 1042 l 410 1139 l 313 1139 l 313 1042 l 118 1042 l 118 1236 l 215 1236 l 215 1333 l 410 1333 l 410 1236 l 507 1236 l 507 1333 l 701 1333 l 701 1139 l 604 1139 l 604 1042 m 69 972 l 750 972 l 750 0 l 69 0 l 69 972 m 361 778 l 361 194 l 458 194 l 458 778 l 361 778 z "},"Ö":{"ha":819,"x_min":69,"x_max":750,"o":"m 167 1236 l 361 1236 l 361 1042 l 167 1042 l 167 1236 m 458 1236 l 653 1236 l 653 1042 l 458 1042 l 458 1236 m 69 972 l 750 972 l 750 0 l 69 0 l 69 972 m 361 778 l 361 194 l 458 194 l 458 778 l 361 778 z "},"×":{"ha":819,"x_min":69,"x_max":750,"o":"m 556 243 l 458 243 l 458 340 l 361 340 l 361 243 l 264 243 l 264 146 l 69 146 l 69 340 l 167 340 l 167 438 l 264 438 l 264 535 l 167 535 l 167 632 l 69 632 l 69 826 l 264 826 l 264 729 l 361 729 l 361 632 l 458 632 l 458 729 l 556 729 l 556 826 l 750 826 l 750 632 l 653 632 l 653 535 l 556 535 l 556 438 l 653 438 l 653 340 l 750 340 l 750 146 l 556 146 l 556 243 z "},"Ø":{"ha":819,"x_min":69,"x_max":750,"o":"m 361 -167 l 167 -167 l 167 0 l 69 0 l 69 972 l 458 972 l 458 1139 l 653 1139 l 653 972 l 750 972 l 750 0 l 361 0 l 361 -167 m 361 778 l 361 583 l 458 583 l 458 778 l 361 778 m 361 389 l 361 194 l 458 194 l 458 389 l 361 389 z "},"Ù":{"ha":819,"x_min":69,"x_max":750,"o":"m 313 1139 l 215 1139 l 215 1333 l 410 1333 l 410 1236 l 507 1236 l 507 1042 l 313 1042 l 313 1139 m 69 972 l 361 972 l 361 194 l 458 194 l 458 972 l 750 972 l 750 0 l 69 0 l 69 972 z "},"Ú":{"ha":819,"x_min":69,"x_max":750,"o":"m 507 1042 l 313 1042 l 313 1236 l 410 1236 l 410 1333 l 604 1333 l 604 1139 l 507 1139 l 507 1042 m 69 972 l 361 972 l 361 194 l 458 194 l 458 972 l 750 972 l 750 0 l 69 0 l 69 972 z "},"Û":{"ha":819,"x_min":69,"x_max":750,"o":"m 458 1139 l 361 1139 l 361 1042 l 167 1042 l 167 1236 l 264 1236 l 264 1333 l 556 1333 l 556 1236 l 653 1236 l 653 1042 l 458 1042 l 458 1139 m 69 972 l 361 972 l 361 194 l 458 194 l 458 972 l 750 972 l 750 0 l 69 0 l 69 972 z "},"Ü":{"ha":819,"x_min":69,"x_max":750,"o":"m 167 1236 l 361 1236 l 361 1042 l 167 1042 l 167 1236 m 458 1236 l 653 1236 l 653 1042 l 458 1042 l 458 1236 m 69 972 l 361 972 l 361 194 l 458 194 l 458 972 l 750 972 l 750 0 l 69 0 l 69 972 z "},"Ý":{"ha":819,"x_min":69,"x_max":750,"o":"m 507 1042 l 313 1042 l 313 1236 l 410 1236 l 410 1333 l 604 1333 l 604 1139 l 507 1139 l 507 1042 m 264 486 l 69 486 l 69 972 l 361 972 l 361 681 l 458 681 l 458 972 l 750 972 l 750 486 l 556 486 l 556 0 l 264 0 l 264 486 z "},"Þ":{"ha":819,"x_min":69,"x_max":750,"o":"m 361 0 l 69 0 l 69 972 l 361 972 l 361 778 l 750 778 l 750 194 l 361 194 l 361 0 m 361 583 l 361 389 l 458 389 l 458 583 l 361 583 z "},"ß":{"ha":819,"x_min":69,"x_max":750,"o":"m 458 778 l 361 778 l 361 0 l 69 0 l 69 875 l 167 875 l 167 972 l 750 972 l 750 486 l 653 486 l 653 389 l 750 389 l 750 97 l 653 97 l 653 0 l 458 0 l 458 778 z "},"à":{"ha":819,"x_min":69,"x_max":750,"o":"m 313 1139 l 215 1139 l 215 1333 l 410 1333 l 410 1236 l 507 1236 l 507 1042 l 313 1042 l 313 1139 m 458 389 l 361 389 l 361 0 l 69 0 l 69 972 l 750 972 l 750 0 l 458 0 l 458 389 m 361 778 l 361 583 l 458 583 l 458 778 l 361 778 z "},"á":{"ha":819,"x_min":69,"x_max":750,"o":"m 507 1042 l 313 1042 l 313 1236 l 410 1236 l 410 1333 l 604 1333 l 604 1139 l 507 1139 l 507 1042 m 458 389 l 361 389 l 361 0 l 69 0 l 69 972 l 750 972 l 750 0 l 458 0 l 458 389 m 361 778 l 361 583 l 458 583 l 458 778 l 361 778 z "},"â":{"ha":819,"x_min":69,"x_max":750,"o":"m 458 1139 l 361 1139 l 361 1042 l 167 1042 l 167 1236 l 264 1236 l 264 1333 l 556 1333 l 556 1236 l 653 1236 l 653 1042 l 458 1042 l 458 1139 m 458 389 l 361 389 l 361 0 l 69 0 l 69 972 l 750 972 l 750 0 l 458 0 l 458 389 m 361 778 l 361 583 l 458 583 l 458 778 l 361 778 z "},"ã":{"ha":819,"x_min":69,"x_max":750,"o":"m 604 1042 l 410 1042 l 410 1139 l 313 1139 l 313 1042 l 118 1042 l 118 1236 l 215 1236 l 215 1333 l 410 1333 l 410 1236 l 507 1236 l 507 1333 l 701 1333 l 701 1139 l 604 1139 l 604 1042 m 458 389 l 361 389 l 361 0 l 69 0 l 69 972 l 750 972 l 750 0 l 458 0 l 458 389 m 361 778 l 361 583 l 458 583 l 458 778 l 361 778 z "},"ä":{"ha":819,"x_min":69,"x_max":750,"o":"m 167 1236 l 361 1236 l 361 1042 l 167 1042 l 167 1236 m 458 1236 l 653 1236 l 653 1042 l 458 1042 l 458 1236 m 458 389 l 361 389 l 361 0 l 69 0 l 69 972 l 750 972 l 750 0 l 458 0 l 458 389 m 361 778 l 361 583 l 458 583 l 458 778 l 361 778 z "},"å":{"ha":819,"x_min":69,"x_max":750,"o":"m 458 389 l 361 389 l 361 0 l 69 0 l 69 972 l 264 972 l 264 1069 l 167 1069 l 167 1278 l 264 1278 l 264 1375 l 556 1375 l 556 1278 l 653 1278 l 653 1069 l 556 1069 l 556 972 l 750 972 l 750 0 l 458 0 l 458 389 m 361 1222 l 361 1125 l 458 1125 l 458 1222 l 361 1222 m 361 778 l 361 583 l 458 583 l 458 778 l 361 778 z "},"æ":{"ha":1208,"x_min":69,"x_max":1139,"o":"m 458 389 l 361 389 l 361 0 l 69 0 l 69 972 l 1139 972 l 1139 778 l 750 778 l 750 583 l 1042 583 l 1042 389 l 750 389 l 750 194 l 1139 194 l 1139 0 l 458 0 l 458 389 m 361 778 l 361 583 l 458 583 l 458 778 l 361 778 z "},"ç":{"ha":722,"x_min":69,"x_max":653,"o":"m 215 -153 l 313 -153 l 313 0 l 69 0 l 69 972 l 653 972 l 653 778 l 361 778 l 361 194 l 653 194 l 653 0 l 507 0 l 507 -347 l 215 -347 l 215 -153 z "},"è":{"ha":819,"x_min":69,"x_max":750,"o":"m 361 1139 l 264 1139 l 264 1333 l 458 1333 l 458 1236 l 556 1236 l 556 1042 l 361 1042 l 361 1139 m 69 972 l 750 972 l 750 778 l 361 778 l 361 583 l 653 583 l 653 389 l 361 389 l 361 194 l 750 194 l 750 0 l 69 0 l 69 972 z "},"é":{"ha":819,"x_min":69,"x_max":750,"o":"m 507 1042 l 313 1042 l 313 1236 l 410 1236 l 410 1333 l 604 1333 l 604 1139 l 507 1139 l 507 1042 m 69 972 l 750 972 l 750 778 l 361 778 l 361 583 l 653 583 l 653 389 l 361 389 l 361 194 l 750 194 l 750 0 l 69 0 l 69 972 z "},"ê":{"ha":819,"x_min":69,"x_max":750,"o":"m 458 1139 l 361 1139 l 361 1042 l 167 1042 l 167 1236 l 264 1236 l 264 1333 l 556 1333 l 556 1236 l 653 1236 l 653 1042 l 458 1042 l 458 1139 m 69 972 l 750 972 l 750 778 l 361 778 l 361 583 l 653 583 l 653 389 l 361 389 l 361 194 l 750 194 l 750 0 l 69 0 l 69 972 z "},"ë":{"ha":819,"x_min":69,"x_max":750,"o":"m 167 1236 l 361 1236 l 361 1042 l 167 1042 l 167 1236 m 458 1236 l 653 1236 l 653 1042 l 458 1042 l 458 1236 m 69 972 l 750 972 l 750 778 l 361 778 l 361 583 l 653 583 l 653 389 l 361 389 l 361 194 l 750 194 l 750 0 l 69 0 l 69 972 z "},"ì":{"ha":431,"x_min":21,"x_max":361,"o":"m 118 1139 l 21 1139 l 21 1333 l 215 1333 l 215 1236 l 313 1236 l 313 1042 l 118 1042 l 118 1139 m 69 972 l 361 972 l 361 0 l 69 0 l 69 972 z "},"í":{"ha":431,"x_min":69,"x_max":410,"o":"m 313 1042 l 118 1042 l 118 1236 l 215 1236 l 215 1333 l 410 1333 l 410 1139 l 313 1139 l 313 1042 m 69 972 l 361 972 l 361 0 l 69 0 l 69 972 z "},"î":{"ha":431,"x_min":-28,"x_max":458,"o":"m 264 1139 l 167 1139 l 167 1042 l -28 1042 l -28 1236 l 69 1236 l 69 1333 l 361 1333 l 361 1236 l 458 1236 l 458 1042 l 264 1042 l 264 1139 m 69 972 l 361 972 l 361 0 l 69 0 l 69 972 z "},"ï":{"ha":431,"x_min":-28,"x_max":458,"o":"m -28 1236 l 167 1236 l 167 1042 l -28 1042 l -28 1236 m 264 1236 l 458 1236 l 458 1042 l 264 1042 l 264 1236 m 69 972 l 361 972 l 361 0 l 69 0 l 69 972 z "},"ð":{"ha":1097,"x_min":69,"x_max":1028,"o":"m 208 389 l 69 389 l 69 583 l 208 583 l 208 972 l 931 972 l 931 875 l 1028 875 l 1028 97 l 931 97 l 931 0 l 208 0 l 208 389 m 500 778 l 500 583 l 639 583 l 639 389 l 500 389 l 500 194 l 736 194 l 736 778 l 500 778 z "},"ñ":{"ha":917,"x_min":69,"x_max":847,"o":"m 653 1042 l 458 1042 l 458 1139 l 361 1139 l 361 1042 l 167 1042 l 167 1236 l 264 1236 l 264 1333 l 458 1333 l 458 1236 l 556 1236 l 556 1333 l 750 1333 l 750 1139 l 653 1139 l 653 1042 m 556 194 l 458 194 l 458 389 l 361 389 l 361 0 l 69 0 l 69 972 l 361 972 l 361 778 l 458 778 l 458 583 l 556 583 l 556 972 l 847 972 l 847 0 l 556 0 l 556 194 z "},"ò":{"ha":819,"x_min":69,"x_max":750,"o":"m 313 1139 l 215 1139 l 215 1333 l 410 1333 l 410 1236 l 507 1236 l 507 1042 l 313 1042 l 313 1139 m 69 972 l 750 972 l 750 0 l 69 0 l 69 972 m 361 778 l 361 194 l 458 194 l 458 778 l 361 778 z "},"ó":{"ha":819,"x_min":69,"x_max":750,"o":"m 507 1042 l 313 1042 l 313 1236 l 410 1236 l 410 1333 l 604 1333 l 604 1139 l 507 1139 l 507 1042 m 69 972 l 750 972 l 750 0 l 69 0 l 69 972 m 361 778 l 361 194 l 458 194 l 458 778 l 361 778 z "},"ô":{"ha":819,"x_min":69,"x_max":750,"o":"m 458 1139 l 361 1139 l 361 1042 l 167 1042 l 167 1236 l 264 1236 l 264 1333 l 556 1333 l 556 1236 l 653 1236 l 653 1042 l 458 1042 l 458 1139 m 69 972 l 750 972 l 750 0 l 69 0 l 69 972 m 361 778 l 361 194 l 458 194 l 458 778 l 361 778 z "},"õ":{"ha":819,"x_min":69,"x_max":750,"o":"m 604 1042 l 410 1042 l 410 1139 l 313 1139 l 313 1042 l 118 1042 l 118 1236 l 215 1236 l 215 1333 l 410 1333 l 410 1236 l 507 1236 l 507 1333 l 701 1333 l 701 1139 l 604 1139 l 604 1042 m 69 972 l 750 972 l 750 0 l 69 0 l 69 972 m 361 778 l 361 194 l 458 194 l 458 778 l 361 778 z "},"ö":{"ha":819,"x_min":69,"x_max":750,"o":"m 167 1236 l 361 1236 l 361 1042 l 167 1042 l 167 1236 m 458 1236 l 653 1236 l 653 1042 l 458 1042 l 458 1236 m 69 972 l 750 972 l 750 0 l 69 0 l 69 972 m 361 778 l 361 194 l 458 194 l 458 778 l 361 778 z "},"÷":{"ha":917,"x_min":69,"x_max":847,"o":"m 313 875 l 604 875 l 604 681 l 313 681 l 313 875 m 69 583 l 847 583 l 847 389 l 69 389 l 69 583 m 313 292 l 604 292 l 604 97 l 313 97 l 313 292 z "},"ø":{"ha":819,"x_min":69,"x_max":750,"o":"m 361 -167 l 167 -167 l 167 0 l 69 0 l 69 972 l 458 972 l 458 1139 l 653 1139 l 653 972 l 750 972 l 750 0 l 361 0 l 361 -167 m 361 778 l 361 583 l 458 583 l 458 778 l 361 778 m 361 389 l 361 194 l 458 194 l 458 389 l 361 389 z "},"ù":{"ha":819,"x_min":69,"x_max":750,"o":"m 313 1139 l 215 1139 l 215 1333 l 410 1333 l 410 1236 l 507 1236 l 507 1042 l 313 1042 l 313 1139 m 69 972 l 361 972 l 361 194 l 458 194 l 458 972 l 750 972 l 750 0 l 69 0 l 69 972 z "},"ú":{"ha":819,"x_min":69,"x_max":750,"o":"m 507 1042 l 313 1042 l 313 1236 l 410 1236 l 410 1333 l 604 1333 l 604 1139 l 507 1139 l 507 1042 m 69 972 l 361 972 l 361 194 l 458 194 l 458 972 l 750 972 l 750 0 l 69 0 l 69 972 z "},"û":{"ha":819,"x_min":69,"x_max":750,"o":"m 458 1139 l 361 1139 l 361 1042 l 167 1042 l 167 1236 l 264 1236 l 264 1333 l 556 1333 l 556 1236 l 653 1236 l 653 1042 l 458 1042 l 458 1139 m 69 972 l 361 972 l 361 194 l 458 194 l 458 972 l 750 972 l 750 0 l 69 0 l 69 972 z "},"ü":{"ha":819,"x_min":69,"x_max":750,"o":"m 167 1236 l 361 1236 l 361 1042 l 167 1042 l 167 1236 m 458 1236 l 653 1236 l 653 1042 l 458 1042 l 458 1236 m 69 972 l 361 972 l 361 194 l 458 194 l 458 972 l 750 972 l 750 0 l 69 0 l 69 972 z "},"ý":{"ha":819,"x_min":69,"x_max":750,"o":"m 507 1042 l 313 1042 l 313 1236 l 410 1236 l 410 1333 l 604 1333 l 604 1139 l 507 1139 l 507 1042 m 264 486 l 69 486 l 69 972 l 361 972 l 361 681 l 458 681 l 458 972 l 750 972 l 750 486 l 556 486 l 556 0 l 264 0 l 264 486 z "},"þ":{"ha":819,"x_min":69,"x_max":750,"o":"m 361 0 l 69 0 l 69 972 l 361 972 l 361 778 l 750 778 l 750 194 l 361 194 l 361 0 m 361 583 l 361 389 l 458 389 l 458 583 l 361 583 z "},"ÿ":{"ha":819,"x_min":69,"x_max":750,"o":"m 167 1236 l 361 1236 l 361 1042 l 167 1042 l 167 1236 m 458 1236 l 653 1236 l 653 1042 l 458 1042 l 458 1236 m 264 486 l 69 486 l 69 972 l 361 972 l 361 681 l 458 681 l 458 972 l 750 972 l 750 486 l 556 486 l 556 0 l 264 0 l 264 486 z "},"Ā":{"ha":819,"x_min":69,"x_max":750,"o":"m 167 1236 l 653 1236 l 653 1042 l 167 1042 l 167 1236 m 458 389 l 361 389 l 361 0 l 69 0 l 69 972 l 750 972 l 750 0 l 458 0 l 458 389 m 361 778 l 361 583 l 458 583 l 458 778 l 361 778 z "},"ā":{"ha":819,"x_min":69,"x_max":750,"o":"m 167 1236 l 653 1236 l 653 1042 l 167 1042 l 167 1236 m 458 389 l 361 389 l 361 0 l 69 0 l 69 972 l 750 972 l 750 0 l 458 0 l 458 389 m 361 778 l 361 583 l 458 583 l 458 778 l 361 778 z "},"Ă":{"ha":819,"x_min":69,"x_max":750,"o":"m 167 1264 l 361 1264 l 361 1167 l 458 1167 l 458 1264 l 653 1264 l 653 1042 l 167 1042 l 167 1264 m 458 389 l 361 389 l 361 0 l 69 0 l 69 972 l 750 972 l 750 0 l 458 0 l 458 389 m 361 778 l 361 583 l 458 583 l 458 778 l 361 778 z "},"ă":{"ha":819,"x_min":69,"x_max":750,"o":"m 167 1264 l 361 1264 l 361 1167 l 458 1167 l 458 1264 l 653 1264 l 653 1042 l 167 1042 l 167 1264 m 458 389 l 361 389 l 361 0 l 69 0 l 69 972 l 750 972 l 750 0 l 458 0 l 458 389 m 361 778 l 361 583 l 458 583 l 458 778 l 361 778 z "},"Ą":{"ha":819,"x_min":69,"x_max":750,"o":"m 458 389 l 361 389 l 361 0 l 69 0 l 69 972 l 750 972 l 750 0 l 653 0 l 653 -153 l 750 -153 l 750 -347 l 458 -347 l 458 389 m 361 778 l 361 583 l 458 583 l 458 778 l 361 778 z "},"ą":{"ha":819,"x_min":69,"x_max":750,"o":"m 458 389 l 361 389 l 361 0 l 69 0 l 69 972 l 750 972 l 750 0 l 653 0 l 653 -153 l 750 -153 l 750 -347 l 458 -347 l 458 389 m 361 778 l 361 583 l 458 583 l 458 778 l 361 778 z "},"Ć":{"ha":722,"x_min":69,"x_max":653,"o":"m 458 1042 l 264 1042 l 264 1236 l 361 1236 l 361 1333 l 556 1333 l 556 1139 l 458 1139 l 458 1042 m 69 972 l 653 972 l 653 778 l 361 778 l 361 194 l 653 194 l 653 0 l 69 0 l 69 972 z "},"ć":{"ha":722,"x_min":69,"x_max":653,"o":"m 458 1042 l 264 1042 l 264 1236 l 361 1236 l 361 1333 l 556 1333 l 556 1139 l 458 1139 l 458 1042 m 69 972 l 653 972 l 653 778 l 361 778 l 361 194 l 653 194 l 653 0 l 69 0 l 69 972 z "},"Ĉ":{"ha":722,"x_min":69,"x_max":653,"o":"m 410 1139 l 313 1139 l 313 1042 l 118 1042 l 118 1236 l 215 1236 l 215 1333 l 507 1333 l 507 1236 l 604 1236 l 604 1042 l 410 1042 l 410 1139 m 69 972 l 653 972 l 653 778 l 361 778 l 361 194 l 653 194 l 653 0 l 69 0 l 69 972 z "},"ĉ":{"ha":722,"x_min":69,"x_max":653,"o":"m 410 1139 l 313 1139 l 313 1042 l 118 1042 l 118 1236 l 215 1236 l 215 1333 l 507 1333 l 507 1236 l 604 1236 l 604 1042 l 410 1042 l 410 1139 m 69 972 l 653 972 l 653 778 l 361 778 l 361 194 l 653 194 l 653 0 l 69 0 l 69 972 z "},"Ċ":{"ha":722,"x_min":69,"x_max":653,"o":"m 264 1236 l 458 1236 l 458 1042 l 264 1042 l 264 1236 m 69 972 l 653 972 l 653 778 l 361 778 l 361 194 l 653 194 l 653 0 l 69 0 l 69 972 z "},"ċ":{"ha":722,"x_min":69,"x_max":653,"o":"m 264 1236 l 458 1236 l 458 1042 l 264 1042 l 264 1236 m 69 972 l 653 972 l 653 778 l 361 778 l 361 194 l 653 194 l 653 0 l 69 0 l 69 972 z "},"Č":{"ha":722,"x_min":69,"x_max":653,"o":"m 215 1139 l 118 1139 l 118 1333 l 313 1333 l 313 1236 l 410 1236 l 410 1333 l 604 1333 l 604 1139 l 507 1139 l 507 1042 l 215 1042 l 215 1139 m 69 972 l 653 972 l 653 778 l 361 778 l 361 194 l 653 194 l 653 0 l 69 0 l 69 972 z "},"č":{"ha":722,"x_min":69,"x_max":653,"o":"m 215 1139 l 118 1139 l 118 1333 l 313 1333 l 313 1236 l 410 1236 l 410 1333 l 604 1333 l 604 1139 l 507 1139 l 507 1042 l 215 1042 l 215 1139 m 69 972 l 653 972 l 653 778 l 361 778 l 361 194 l 653 194 l 653 0 l 69 0 l 69 972 z "},"Ď":{"ha":819,"x_min":69,"x_max":750,"o":"m 264 1139 l 167 1139 l 167 1333 l 361 1333 l 361 1236 l 458 1236 l 458 1333 l 653 1333 l 653 1139 l 556 1139 l 556 1042 l 264 1042 l 264 1139 m 69 972 l 653 972 l 653 875 l 750 875 l 750 97 l 653 97 l 653 0 l 69 0 l 69 972 m 361 778 l 361 194 l 458 194 l 458 778 l 361 778 z "},"ď":{"ha":819,"x_min":69,"x_max":750,"o":"m 264 1139 l 167 1139 l 167 1333 l 361 1333 l 361 1236 l 458 1236 l 458 1333 l 653 1333 l 653 1139 l 556 1139 l 556 1042 l 264 1042 l 264 1139 m 69 972 l 653 972 l 653 875 l 750 875 l 750 97 l 653 97 l 653 0 l 69 0 l 69 972 m 361 778 l 361 194 l 458 194 l 458 778 l 361 778 z "},"Đ":{"ha":1097,"x_min":83,"x_max":1028,"o":"m 222 389 l 83 389 l 83 583 l 222 583 l 222 972 l 931 972 l 931 875 l 1028 875 l 1028 97 l 931 97 l 931 0 l 222 0 l 222 389 m 514 778 l 514 583 l 653 583 l 653 389 l 514 389 l 514 194 l 736 194 l 736 778 l 514 778 z "},"đ":{"ha":1097,"x_min":69,"x_max":1028,"o":"m 208 389 l 69 389 l 69 583 l 208 583 l 208 972 l 931 972 l 931 875 l 1028 875 l 1028 97 l 931 97 l 931 0 l 208 0 l 208 389 m 500 778 l 500 583 l 639 583 l 639 389 l 500 389 l 500 194 l 736 194 l 736 778 l 500 778 z "},"Ē":{"ha":819,"x_min":69,"x_max":750,"o":"m 167 1236 l 653 1236 l 653 1042 l 167 1042 l 167 1236 m 69 972 l 750 972 l 750 778 l 361 778 l 361 583 l 653 583 l 653 389 l 361 389 l 361 194 l 750 194 l 750 0 l 69 0 l 69 972 z "},"ē":{"ha":819,"x_min":69,"x_max":750,"o":"m 167 1236 l 653 1236 l 653 1042 l 167 1042 l 167 1236 m 69 972 l 750 972 l 750 778 l 361 778 l 361 583 l 653 583 l 653 389 l 361 389 l 361 194 l 750 194 l 750 0 l 69 0 l 69 972 z "},"Ĕ":{"ha":819,"x_min":69,"x_max":750,"o":"m 167 1264 l 361 1264 l 361 1167 l 458 1167 l 458 1264 l 653 1264 l 653 1042 l 167 1042 l 167 1264 m 69 972 l 750 972 l 750 778 l 361 778 l 361 583 l 653 583 l 653 389 l 361 389 l 361 194 l 750 194 l 750 0 l 69 0 l 69 972 z "},"ĕ":{"ha":819,"x_min":69,"x_max":750,"o":"m 167 1264 l 361 1264 l 361 1167 l 458 1167 l 458 1264 l 653 1264 l 653 1042 l 167 1042 l 167 1264 m 69 972 l 750 972 l 750 778 l 361 778 l 361 583 l 653 583 l 653 389 l 361 389 l 361 194 l 750 194 l 750 0 l 69 0 l 69 972 z "},"Ė":{"ha":819,"x_min":69,"x_max":750,"o":"m 313 1236 l 507 1236 l 507 1042 l 313 1042 l 313 1236 m 69 972 l 750 972 l 750 778 l 361 778 l 361 583 l 653 583 l 653 389 l 361 389 l 361 194 l 750 194 l 750 0 l 69 0 l 69 972 z "},"ė":{"ha":819,"x_min":69,"x_max":750,"o":"m 313 1236 l 507 1236 l 507 1042 l 313 1042 l 313 1236 m 69 972 l 750 972 l 750 778 l 361 778 l 361 583 l 653 583 l 653 389 l 361 389 l 361 194 l 750 194 l 750 0 l 69 0 l 69 972 z "},"Ę":{"ha":819,"x_min":69,"x_max":750,"o":"m 458 0 l 69 0 l 69 972 l 750 972 l 750 778 l 361 778 l 361 583 l 653 583 l 653 389 l 361 389 l 361 194 l 750 194 l 750 0 l 653 0 l 653 -153 l 750 -153 l 750 -347 l 458 -347 l 458 0 z "},"ę":{"ha":819,"x_min":69,"x_max":750,"o":"m 458 0 l 69 0 l 69 972 l 750 972 l 750 778 l 361 778 l 361 583 l 653 583 l 653 389 l 361 389 l 361 194 l 750 194 l 750 0 l 653 0 l 653 -153 l 750 -153 l 750 -347 l 458 -347 l 458 0 z "},"Ě":{"ha":819,"x_min":69,"x_max":750,"o":"m 264 1139 l 167 1139 l 167 1333 l 361 1333 l 361 1236 l 458 1236 l 458 1333 l 653 1333 l 653 1139 l 556 1139 l 556 1042 l 264 1042 l 264 1139 m 69 972 l 750 972 l 750 778 l 361 778 l 361 583 l 653 583 l 653 389 l 361 389 l 361 194 l 750 194 l 750 0 l 69 0 l 69 972 z "},"ě":{"ha":819,"x_min":69,"x_max":750,"o":"m 264 1139 l 167 1139 l 167 1333 l 361 1333 l 361 1236 l 458 1236 l 458 1333 l 653 1333 l 653 1139 l 556 1139 l 556 1042 l 264 1042 l 264 1139 m 69 972 l 750 972 l 750 778 l 361 778 l 361 583 l 653 583 l 653 389 l 361 389 l 361 194 l 750 194 l 750 0 l 69 0 l 69 972 z "},"Ĝ":{"ha":819,"x_min":69,"x_max":750,"o":"m 458 1139 l 361 1139 l 361 1042 l 167 1042 l 167 1236 l 264 1236 l 264 1333 l 556 1333 l 556 1236 l 653 1236 l 653 1042 l 458 1042 l 458 1139 m 69 972 l 750 972 l 750 778 l 361 778 l 361 194 l 458 194 l 458 583 l 750 583 l 750 0 l 69 0 l 69 972 z "},"ĝ":{"ha":819,"x_min":69,"x_max":750,"o":"m 458 1139 l 361 1139 l 361 1042 l 167 1042 l 167 1236 l 264 1236 l 264 1333 l 556 1333 l 556 1236 l 653 1236 l 653 1042 l 458 1042 l 458 1139 m 69 972 l 750 972 l 750 778 l 361 778 l 361 194 l 458 194 l 458 583 l 750 583 l 750 0 l 69 0 l 69 972 z "},"Ğ":{"ha":819,"x_min":69,"x_max":750,"o":"m 167 1264 l 361 1264 l 361 1167 l 458 1167 l 458 1264 l 653 1264 l 653 1042 l 167 1042 l 167 1264 m 69 972 l 750 972 l 750 778 l 361 778 l 361 194 l 458 194 l 458 583 l 750 583 l 750 0 l 69 0 l 69 972 z "},"ğ":{"ha":819,"x_min":69,"x_max":750,"o":"m 167 1264 l 361 1264 l 361 1167 l 458 1167 l 458 1264 l 653 1264 l 653 1042 l 167 1042 l 167 1264 m 69 972 l 750 972 l 750 778 l 361 778 l 361 194 l 458 194 l 458 583 l 750 583 l 750 0 l 69 0 l 69 972 z "},"Ġ":{"ha":819,"x_min":69,"x_max":750,"o":"m 313 1236 l 507 1236 l 507 1042 l 313 1042 l 313 1236 m 69 972 l 750 972 l 750 778 l 361 778 l 361 194 l 458 194 l 458 583 l 750 583 l 750 0 l 69 0 l 69 972 z "},"ġ":{"ha":819,"x_min":69,"x_max":750,"o":"m 313 1236 l 507 1236 l 507 1042 l 313 1042 l 313 1236 m 69 972 l 750 972 l 750 778 l 361 778 l 361 194 l 458 194 l 458 583 l 750 583 l 750 0 l 69 0 l 69 972 z "},"Ģ":{"ha":819,"x_min":69,"x_max":750,"o":"m 69 972 l 750 972 l 750 778 l 361 778 l 361 194 l 458 194 l 458 583 l 750 583 l 750 0 l 69 0 l 69 972 m 361 -264 l 264 -264 l 264 -69 l 556 -69 l 556 -347 l 361 -347 l 361 -264 z "},"ģ":{"ha":819,"x_min":69,"x_max":750,"o":"m 69 972 l 750 972 l 750 778 l 361 778 l 361 194 l 458 194 l 458 583 l 750 583 l 750 0 l 69 0 l 69 972 m 361 -264 l 264 -264 l 264 -69 l 556 -69 l 556 -347 l 361 -347 l 361 -264 z "},"Ĥ":{"ha":819,"x_min":69,"x_max":750,"o":"m 458 1139 l 361 1139 l 361 1042 l 167 1042 l 167 1236 l 264 1236 l 264 1333 l 556 1333 l 556 1236 l 653 1236 l 653 1042 l 458 1042 l 458 1139 m 458 389 l 361 389 l 361 0 l 69 0 l 69 972 l 361 972 l 361 583 l 458 583 l 458 972 l 750 972 l 750 0 l 458 0 l 458 389 z "},"ĥ":{"ha":819,"x_min":69,"x_max":750,"o":"m 458 1139 l 361 1139 l 361 1042 l 167 1042 l 167 1236 l 264 1236 l 264 1333 l 556 1333 l 556 1236 l 653 1236 l 653 1042 l 458 1042 l 458 1139 m 458 389 l 361 389 l 361 0 l 69 0 l 69 972 l 361 972 l 361 583 l 458 583 l 458 972 l 750 972 l 750 0 l 458 0 l 458 389 z "},"Ħ":{"ha":1014,"x_min":69,"x_max":944,"o":"m 556 194 l 458 194 l 458 0 l 167 0 l 167 583 l 69 583 l 69 778 l 167 778 l 167 972 l 458 972 l 458 778 l 556 778 l 556 972 l 847 972 l 847 778 l 944 778 l 944 583 l 847 583 l 847 0 l 556 0 l 556 194 m 458 583 l 458 389 l 556 389 l 556 583 l 458 583 z "},"ħ":{"ha":1014,"x_min":69,"x_max":944,"o":"m 556 194 l 458 194 l 458 0 l 167 0 l 167 583 l 69 583 l 69 778 l 167 778 l 167 972 l 458 972 l 458 778 l 556 778 l 556 972 l 847 972 l 847 778 l 944 778 l 944 583 l 847 583 l 847 0 l 556 0 l 556 194 m 458 583 l 458 389 l 556 389 l 556 583 l 458 583 z "},"Ĩ":{"ha":431,"x_min":-76,"x_max":507,"o":"m 410 1042 l 215 1042 l 215 1139 l 118 1139 l 118 1042 l -76 1042 l -76 1236 l 21 1236 l 21 1333 l 215 1333 l 215 1236 l 313 1236 l 313 1333 l 507 1333 l 507 1139 l 410 1139 l 410 1042 m 69 972 l 361 972 l 361 0 l 69 0 l 69 972 z "},"ĩ":{"ha":431,"x_min":-76,"x_max":507,"o":"m 410 1042 l 215 1042 l 215 1139 l 118 1139 l 118 1042 l -76 1042 l -76 1236 l 21 1236 l 21 1333 l 215 1333 l 215 1236 l 313 1236 l 313 1333 l 507 1333 l 507 1139 l 410 1139 l 410 1042 m 69 972 l 361 972 l 361 0 l 69 0 l 69 972 z "},"Ī":{"ha":431,"x_min":-28,"x_max":458,"o":"m -28 1236 l 458 1236 l 458 1042 l -28 1042 l -28 1236 m 69 972 l 361 972 l 361 0 l 69 0 l 69 972 z "},"ī":{"ha":431,"x_min":-28,"x_max":458,"o":"m -28 1236 l 458 1236 l 458 1042 l -28 1042 l -28 1236 m 69 972 l 361 972 l 361 0 l 69 0 l 69 972 z "},"Ĭ":{"ha":431,"x_min":-28,"x_max":458,"o":"m -28 1264 l 167 1264 l 167 1167 l 264 1167 l 264 1264 l 458 1264 l 458 1042 l -28 1042 l -28 1264 m 69 972 l 361 972 l 361 0 l 69 0 l 69 972 z "},"ĭ":{"ha":431,"x_min":-28,"x_max":458,"o":"m -28 1264 l 167 1264 l 167 1167 l 264 1167 l 264 1264 l 458 1264 l 458 1042 l -28 1042 l -28 1264 m 69 972 l 361 972 l 361 0 l 69 0 l 69 972 z "},"Į":{"ha":431,"x_min":69,"x_max":410,"o":"m 118 0 l 69 0 l 69 972 l 361 972 l 361 0 l 313 0 l 313 -153 l 410 -153 l 410 -347 l 118 -347 l 118 0 z "},"į":{"ha":431,"x_min":69,"x_max":410,"o":"m 118 0 l 69 0 l 69 972 l 361 972 l 361 0 l 313 0 l 313 -153 l 410 -153 l 410 -347 l 118 -347 l 118 0 z "},"İ":{"ha":431,"x_min":69,"x_max":361,"o":"m 69 1236 l 361 1236 l 361 1042 l 69 1042 l 69 1236 m 69 972 l 361 972 l 361 0 l 69 0 l 69 972 z "},"ı":{"ha":431,"x_min":69,"x_max":361,"o":"m 69 972 l 361 972 l 361 0 l 69 0 l 69 972 z "},"Ĳ":{"ha":1250,"x_min":69,"x_max":1181,"o":"m 69 972 l 361 972 l 361 0 l 69 0 l 69 972 m 500 389 l 792 389 l 792 194 l 889 194 l 889 972 l 1181 972 l 1181 0 l 500 0 l 500 389 z "},"ĳ":{"ha":1250,"x_min":69,"x_max":1181,"o":"m 69 972 l 361 972 l 361 0 l 69 0 l 69 972 m 500 389 l 792 389 l 792 194 l 889 194 l 889 972 l 1181 972 l 1181 0 l 500 0 l 500 389 z "},"Ĵ":{"ha":819,"x_min":69,"x_max":750,"o":"m 458 1139 l 361 1139 l 361 1042 l 167 1042 l 167 1236 l 264 1236 l 264 1333 l 556 1333 l 556 1236 l 653 1236 l 653 1042 l 458 1042 l 458 1139 m 69 389 l 361 389 l 361 194 l 458 194 l 458 972 l 750 972 l 750 0 l 69 0 l 69 389 z "},"ĵ":{"ha":819,"x_min":69,"x_max":750,"o":"m 458 1139 l 361 1139 l 361 1042 l 167 1042 l 167 1236 l 264 1236 l 264 1333 l 556 1333 l 556 1236 l 653 1236 l 653 1042 l 458 1042 l 458 1139 m 69 389 l 361 389 l 361 194 l 458 194 l 458 972 l 750 972 l 750 0 l 69 0 l 69 389 z "},"Ķ":{"ha":819,"x_min":69,"x_max":750,"o":"m 458 292 l 361 292 l 361 0 l 69 0 l 69 972 l 361 972 l 361 681 l 458 681 l 458 972 l 750 972 l 750 583 l 556 583 l 556 486 l 750 486 l 750 0 l 458 0 l 458 292 m 361 -264 l 264 -264 l 264 -69 l 556 -69 l 556 -347 l 361 -347 l 361 -264 z "},"ķ":{"ha":819,"x_min":69,"x_max":750,"o":"m 458 292 l 361 292 l 361 0 l 69 0 l 69 972 l 361 972 l 361 681 l 458 681 l 458 972 l 750 972 l 750 583 l 556 583 l 556 486 l 750 486 l 750 0 l 458 0 l 458 292 m 361 -264 l 264 -264 l 264 -69 l 556 -69 l 556 -347 l 361 -347 l 361 -264 z "},"ĸ":{"ha":819,"x_min":69,"x_max":750,"o":"m 458 292 l 361 292 l 361 0 l 69 0 l 69 972 l 361 972 l 361 681 l 458 681 l 458 972 l 750 972 l 750 583 l 556 583 l 556 486 l 750 486 l 750 0 l 458 0 l 458 292 z "},"Ĺ":{"ha":722,"x_min":69,"x_max":653,"o":"m 313 1042 l 118 1042 l 118 1236 l 215 1236 l 215 1333 l 410 1333 l 410 1139 l 313 1139 l 313 1042 m 69 972 l 361 972 l 361 194 l 653 194 l 653 0 l 69 0 l 69 972 z "},"ĺ":{"ha":722,"x_min":69,"x_max":653,"o":"m 313 1042 l 118 1042 l 118 1236 l 215 1236 l 215 1333 l 410 1333 l 410 1139 l 313 1139 l 313 1042 m 69 972 l 361 972 l 361 194 l 653 194 l 653 0 l 69 0 l 69 972 z "},"Ļ":{"ha":722,"x_min":69,"x_max":653,"o":"m 69 972 l 361 972 l 361 194 l 653 194 l 653 0 l 69 0 l 69 972 m 313 -264 l 215 -264 l 215 -69 l 507 -69 l 507 -347 l 313 -347 l 313 -264 z "},"ļ":{"ha":722,"x_min":69,"x_max":653,"o":"m 69 972 l 361 972 l 361 194 l 653 194 l 653 0 l 69 0 l 69 972 m 313 -264 l 215 -264 l 215 -69 l 507 -69 l 507 -347 l 313 -347 l 313 -264 z "},"Ľ":{"ha":819,"x_min":69,"x_max":750,"o":"m 69 972 l 361 972 l 361 194 l 653 194 l 653 0 l 69 0 l 69 972 m 458 972 l 750 972 l 750 583 l 458 583 l 458 972 z "},"ľ":{"ha":819,"x_min":69,"x_max":750,"o":"m 69 972 l 361 972 l 361 194 l 653 194 l 653 0 l 69 0 l 69 972 m 458 972 l 750 972 l 750 583 l 458 583 l 458 972 z "},"Ŀ":{"ha":819,"x_min":69,"x_max":750,"o":"m 69 972 l 361 972 l 361 194 l 653 194 l 653 0 l 69 0 l 69 972 m 458 681 l 750 681 l 750 389 l 458 389 l 458 681 z "},"ŀ":{"ha":819,"x_min":69,"x_max":750,"o":"m 69 972 l 361 972 l 361 194 l 653 194 l 653 0 l 69 0 l 69 972 m 458 681 l 750 681 l 750 389 l 458 389 l 458 681 z "},"Ł":{"ha":750,"x_min":0,"x_max":681,"o":"m 97 389 l 0 389 l 0 583 l 97 583 l 97 972 l 389 972 l 389 681 l 486 681 l 486 486 l 389 486 l 389 194 l 681 194 l 681 0 l 97 0 l 97 389 z "},"ł":{"ha":750,"x_min":0,"x_max":681,"o":"m 97 389 l 0 389 l 0 583 l 97 583 l 97 972 l 389 972 l 389 681 l 486 681 l 486 486 l 389 486 l 389 194 l 681 194 l 681 0 l 97 0 l 97 389 z "},"Ń":{"ha":917,"x_min":69,"x_max":847,"o":"m 556 1042 l 361 1042 l 361 1236 l 458 1236 l 458 1333 l 653 1333 l 653 1139 l 556 1139 l 556 1042 m 556 194 l 458 194 l 458 389 l 361 389 l 361 0 l 69 0 l 69 972 l 361 972 l 361 778 l 458 778 l 458 583 l 556 583 l 556 972 l 847 972 l 847 0 l 556 0 l 556 194 z "},"ń":{"ha":917,"x_min":69,"x_max":847,"o":"m 556 1042 l 361 1042 l 361 1236 l 458 1236 l 458 1333 l 653 1333 l 653 1139 l 556 1139 l 556 1042 m 556 194 l 458 194 l 458 389 l 361 389 l 361 0 l 69 0 l 69 972 l 361 972 l 361 778 l 458 778 l 458 583 l 556 583 l 556 972 l 847 972 l 847 0 l 556 0 l 556 194 z "},"Ņ":{"ha":917,"x_min":69,"x_max":847,"o":"m 556 194 l 458 194 l 458 389 l 361 389 l 361 0 l 69 0 l 69 972 l 361 972 l 361 778 l 458 778 l 458 583 l 556 583 l 556 972 l 847 972 l 847 0 l 556 0 l 556 194 m 410 -264 l 313 -264 l 313 -69 l 604 -69 l 604 -347 l 410 -347 l 410 -264 z "},"ņ":{"ha":917,"x_min":69,"x_max":847,"o":"m 556 194 l 458 194 l 458 389 l 361 389 l 361 0 l 69 0 l 69 972 l 361 972 l 361 778 l 458 778 l 458 583 l 556 583 l 556 972 l 847 972 l 847 0 l 556 0 l 556 194 m 410 -264 l 313 -264 l 313 -69 l 604 -69 l 604 -347 l 410 -347 l 410 -264 z "},"Ň":{"ha":917,"x_min":69,"x_max":847,"o":"m 313 1139 l 215 1139 l 215 1333 l 410 1333 l 410 1236 l 507 1236 l 507 1333 l 701 1333 l 701 1139 l 604 1139 l 604 1042 l 313 1042 l 313 1139 m 556 194 l 458 194 l 458 389 l 361 389 l 361 0 l 69 0 l 69 972 l 361 972 l 361 778 l 458 778 l 458 583 l 556 583 l 556 972 l 847 972 l 847 0 l 556 0 l 556 194 z "},"ň":{"ha":917,"x_min":69,"x_max":847,"o":"m 313 1139 l 215 1139 l 215 1333 l 410 1333 l 410 1236 l 507 1236 l 507 1333 l 701 1333 l 701 1139 l 604 1139 l 604 1042 l 313 1042 l 313 1139 m 556 194 l 458 194 l 458 389 l 361 389 l 361 0 l 69 0 l 69 972 l 361 972 l 361 778 l 458 778 l 458 583 l 556 583 l 556 972 l 847 972 l 847 0 l 556 0 l 556 194 z "},"Ŋ":{"ha":917,"x_min":69,"x_max":847,"o":"m 458 0 l 556 0 l 556 194 l 458 194 l 458 389 l 361 389 l 361 0 l 69 0 l 69 972 l 361 972 l 361 778 l 458 778 l 458 583 l 556 583 l 556 972 l 847 972 l 847 -97 l 750 -97 l 750 -194 l 458 -194 l 458 0 z "},"ŋ":{"ha":917,"x_min":69,"x_max":847,"o":"m 458 0 l 556 0 l 556 194 l 458 194 l 458 389 l 361 389 l 361 0 l 69 0 l 69 972 l 361 972 l 361 778 l 458 778 l 458 583 l 556 583 l 556 972 l 847 972 l 847 -97 l 750 -97 l 750 -194 l 458 -194 l 458 0 z "},"Ō":{"ha":819,"x_min":69,"x_max":750,"o":"m 167 1236 l 653 1236 l 653 1042 l 167 1042 l 167 1236 m 69 972 l 750 972 l 750 0 l 69 0 l 69 972 m 361 778 l 361 194 l 458 194 l 458 778 l 361 778 z "},"ō":{"ha":819,"x_min":69,"x_max":750,"o":"m 167 1236 l 653 1236 l 653 1042 l 167 1042 l 167 1236 m 69 972 l 750 972 l 750 0 l 69 0 l 69 972 m 361 778 l 361 194 l 458 194 l 458 778 l 361 778 z "},"Ŏ":{"ha":819,"x_min":69,"x_max":750,"o":"m 167 1264 l 361 1264 l 361 1167 l 458 1167 l 458 1264 l 653 1264 l 653 1042 l 167 1042 l 167 1264 m 69 972 l 750 972 l 750 0 l 69 0 l 69 972 m 361 778 l 361 194 l 458 194 l 458 778 l 361 778 z "},"ŏ":{"ha":819,"x_min":69,"x_max":750,"o":"m 167 1264 l 361 1264 l 361 1167 l 458 1167 l 458 1264 l 653 1264 l 653 1042 l 167 1042 l 167 1264 m 69 972 l 750 972 l 750 0 l 69 0 l 69 972 m 361 778 l 361 194 l 458 194 l 458 778 l 361 778 z "},"Ő":{"ha":819,"x_min":69,"x_max":750,"o":"m 750 972 l 750 0 l 69 0 l 69 972 l 167 972 l 167 1236 l 361 1236 l 361 972 l 458 972 l 458 1236 l 653 1236 l 653 972 l 750 972 m 458 778 l 361 778 l 361 194 l 458 194 l 458 778 z "},"ő":{"ha":819,"x_min":69,"x_max":750,"o":"m 750 972 l 750 0 l 69 0 l 69 972 l 167 972 l 167 1236 l 361 1236 l 361 972 l 458 972 l 458 1236 l 653 1236 l 653 972 l 750 972 m 458 778 l 361 778 l 361 194 l 458 194 l 458 778 z "},"Œ":{"ha":1208,"x_min":69,"x_max":1139,"o":"m 69 972 l 1139 972 l 1139 778 l 750 778 l 750 583 l 1042 583 l 1042 389 l 750 389 l 750 194 l 1139 194 l 1139 0 l 69 0 l 69 972 m 361 778 l 361 194 l 458 194 l 458 778 l 361 778 z "},"œ":{"ha":1208,"x_min":69,"x_max":1139,"o":"m 69 972 l 1139 972 l 1139 778 l 750 778 l 750 583 l 1042 583 l 1042 389 l 750 389 l 750 194 l 1139 194 l 1139 0 l 69 0 l 69 972 m 361 778 l 361 194 l 458 194 l 458 778 l 361 778 z "},"Ŕ":{"ha":819,"x_min":69,"x_max":750,"o":"m 507 1042 l 313 1042 l 313 1236 l 410 1236 l 410 1333 l 604 1333 l 604 1139 l 507 1139 l 507 1042 m 458 389 l 361 389 l 361 0 l 69 0 l 69 972 l 750 972 l 750 583 l 653 583 l 653 486 l 750 486 l 750 0 l 458 0 l 458 389 m 361 778 l 361 583 l 458 583 l 458 778 l 361 778 z "},"ŕ":{"ha":819,"x_min":69,"x_max":750,"o":"m 507 1042 l 313 1042 l 313 1236 l 410 1236 l 410 1333 l 604 1333 l 604 1139 l 507 1139 l 507 1042 m 458 389 l 361 389 l 361 0 l 69 0 l 69 972 l 750 972 l 750 583 l 653 583 l 653 486 l 750 486 l 750 0 l 458 0 l 458 389 m 361 778 l 361 583 l 458 583 l 458 778 l 361 778 z "},"Ŗ":{"ha":819,"x_min":69,"x_max":750,"o":"m 458 389 l 361 389 l 361 0 l 69 0 l 69 972 l 750 972 l 750 583 l 653 583 l 653 486 l 750 486 l 750 0 l 458 0 l 458 389 m 361 778 l 361 583 l 458 583 l 458 778 l 361 778 m 361 -264 l 264 -264 l 264 -69 l 556 -69 l 556 -347 l 361 -347 l 361 -264 z "},"ŗ":{"ha":819,"x_min":69,"x_max":750,"o":"m 458 389 l 361 389 l 361 0 l 69 0 l 69 972 l 750 972 l 750 583 l 653 583 l 653 486 l 750 486 l 750 0 l 458 0 l 458 389 m 361 778 l 361 583 l 458 583 l 458 778 l 361 778 m 361 -264 l 264 -264 l 264 -69 l 556 -69 l 556 -347 l 361 -347 l 361 -264 z "},"Ř":{"ha":819,"x_min":69,"x_max":750,"o":"m 264 1139 l 167 1139 l 167 1333 l 361 1333 l 361 1236 l 458 1236 l 458 1333 l 653 1333 l 653 1139 l 556 1139 l 556 1042 l 264 1042 l 264 1139 m 458 389 l 361 389 l 361 0 l 69 0 l 69 972 l 750 972 l 750 583 l 653 583 l 653 486 l 750 486 l 750 0 l 458 0 l 458 389 m 361 778 l 361 583 l 458 583 l 458 778 l 361 778 z "},"ř":{"ha":819,"x_min":69,"x_max":750,"o":"m 264 1139 l 167 1139 l 167 1333 l 361 1333 l 361 1236 l 458 1236 l 458 1333 l 653 1333 l 653 1139 l 556 1139 l 556 1042 l 264 1042 l 264 1139 m 458 389 l 361 389 l 361 0 l 69 0 l 69 972 l 750 972 l 750 583 l 653 583 l 653 486 l 750 486 l 750 0 l 458 0 l 458 389 m 361 778 l 361 583 l 458 583 l 458 778 l 361 778 z "},"Ś":{"ha":819,"x_min":69,"x_max":750,"o":"m 507 1042 l 313 1042 l 313 1236 l 410 1236 l 410 1333 l 604 1333 l 604 1139 l 507 1139 l 507 1042 m 69 194 l 458 194 l 458 389 l 69 389 l 69 972 l 750 972 l 750 778 l 361 778 l 361 583 l 750 583 l 750 0 l 69 0 l 69 194 z "},"ś":{"ha":819,"x_min":69,"x_max":750,"o":"m 507 1042 l 313 1042 l 313 1236 l 410 1236 l 410 1333 l 604 1333 l 604 1139 l 507 1139 l 507 1042 m 69 194 l 458 194 l 458 389 l 69 389 l 69 972 l 750 972 l 750 778 l 361 778 l 361 583 l 750 583 l 750 0 l 69 0 l 69 194 z "},"Ŝ":{"ha":819,"x_min":69,"x_max":750,"o":"m 458 1139 l 361 1139 l 361 1042 l 167 1042 l 167 1236 l 264 1236 l 264 1333 l 556 1333 l 556 1236 l 653 1236 l 653 1042 l 458 1042 l 458 1139 m 69 194 l 458 194 l 458 389 l 69 389 l 69 972 l 750 972 l 750 778 l 361 778 l 361 583 l 750 583 l 750 0 l 69 0 l 69 194 z "},"ŝ":{"ha":819,"x_min":69,"x_max":750,"o":"m 458 1139 l 361 1139 l 361 1042 l 167 1042 l 167 1236 l 264 1236 l 264 1333 l 556 1333 l 556 1236 l 653 1236 l 653 1042 l 458 1042 l 458 1139 m 69 194 l 458 194 l 458 389 l 69 389 l 69 972 l 750 972 l 750 778 l 361 778 l 361 583 l 750 583 l 750 0 l 69 0 l 69 194 z "},"Ş":{"ha":819,"x_min":69,"x_max":750,"o":"m 264 -153 l 361 -153 l 361 0 l 69 0 l 69 194 l 458 194 l 458 389 l 69 389 l 69 972 l 750 972 l 750 778 l 361 778 l 361 583 l 750 583 l 750 0 l 556 0 l 556 -347 l 264 -347 l 264 -153 z "},"ş":{"ha":819,"x_min":69,"x_max":750,"o":"m 264 -153 l 361 -153 l 361 0 l 69 0 l 69 194 l 458 194 l 458 389 l 69 389 l 69 972 l 750 972 l 750 778 l 361 778 l 361 583 l 750 583 l 750 0 l 556 0 l 556 -347 l 264 -347 l 264 -153 z "},"Š":{"ha":819,"x_min":69,"x_max":750,"o":"m 264 1139 l 167 1139 l 167 1333 l 361 1333 l 361 1236 l 458 1236 l 458 1333 l 653 1333 l 653 1139 l 556 1139 l 556 1042 l 264 1042 l 264 1139 m 69 194 l 458 194 l 458 389 l 69 389 l 69 972 l 750 972 l 750 778 l 361 778 l 361 583 l 750 583 l 750 0 l 69 0 l 69 194 z "},"š":{"ha":819,"x_min":69,"x_max":750,"o":"m 264 1139 l 167 1139 l 167 1333 l 361 1333 l 361 1236 l 458 1236 l 458 1333 l 653 1333 l 653 1139 l 556 1139 l 556 1042 l 264 1042 l 264 1139 m 69 194 l 458 194 l 458 389 l 69 389 l 69 972 l 750 972 l 750 778 l 361 778 l 361 583 l 750 583 l 750 0 l 69 0 l 69 194 z "},"Ţ":{"ha":819,"x_min":69,"x_max":750,"o":"m 264 778 l 69 778 l 69 972 l 750 972 l 750 778 l 556 778 l 556 0 l 264 0 l 264 778 m 361 -264 l 264 -264 l 264 -69 l 556 -69 l 556 -347 l 361 -347 l 361 -264 z "},"ţ":{"ha":819,"x_min":69,"x_max":750,"o":"m 264 778 l 69 778 l 69 972 l 750 972 l 750 778 l 556 778 l 556 0 l 264 0 l 264 778 m 361 -264 l 264 -264 l 264 -69 l 556 -69 l 556 -347 l 361 -347 l 361 -264 z "},"Ť":{"ha":819,"x_min":69,"x_max":750,"o":"m 264 1139 l 167 1139 l 167 1333 l 361 1333 l 361 1236 l 458 1236 l 458 1333 l 653 1333 l 653 1139 l 556 1139 l 556 1042 l 264 1042 l 264 1139 m 264 778 l 69 778 l 69 972 l 750 972 l 750 778 l 556 778 l 556 0 l 264 0 l 264 778 z "},"ť":{"ha":819,"x_min":69,"x_max":750,"o":"m 264 1139 l 167 1139 l 167 1333 l 361 1333 l 361 1236 l 458 1236 l 458 1333 l 653 1333 l 653 1139 l 556 1139 l 556 1042 l 264 1042 l 264 1139 m 264 778 l 69 778 l 69 972 l 750 972 l 750 778 l 556 778 l 556 0 l 264 0 l 264 778 z "},"Ŧ":{"ha":819,"x_min":69,"x_max":750,"o":"m 264 389 l 69 389 l 69 583 l 264 583 l 264 778 l 69 778 l 69 972 l 750 972 l 750 778 l 556 778 l 556 583 l 750 583 l 750 389 l 556 389 l 556 0 l 264 0 l 264 389 z "},"ŧ":{"ha":819,"x_min":69,"x_max":750,"o":"m 264 389 l 69 389 l 69 583 l 264 583 l 264 778 l 69 778 l 69 972 l 750 972 l 750 778 l 556 778 l 556 583 l 750 583 l 750 389 l 556 389 l 556 0 l 264 0 l 264 389 z "},"Ũ":{"ha":819,"x_min":69,"x_max":750,"o":"m 604 1042 l 410 1042 l 410 1139 l 313 1139 l 313 1042 l 118 1042 l 118 1236 l 215 1236 l 215 1333 l 410 1333 l 410 1236 l 507 1236 l 507 1333 l 701 1333 l 701 1139 l 604 1139 l 604 1042 m 69 972 l 361 972 l 361 194 l 458 194 l 458 972 l 750 972 l 750 0 l 69 0 l 69 972 z "},"ũ":{"ha":819,"x_min":69,"x_max":750,"o":"m 604 1042 l 410 1042 l 410 1139 l 313 1139 l 313 1042 l 118 1042 l 118 1236 l 215 1236 l 215 1333 l 410 1333 l 410 1236 l 507 1236 l 507 1333 l 701 1333 l 701 1139 l 604 1139 l 604 1042 m 69 972 l 361 972 l 361 194 l 458 194 l 458 972 l 750 972 l 750 0 l 69 0 l 69 972 z "},"Ū":{"ha":819,"x_min":69,"x_max":750,"o":"m 167 1236 l 653 1236 l 653 1042 l 167 1042 l 167 1236 m 69 972 l 361 972 l 361 194 l 458 194 l 458 972 l 750 972 l 750 0 l 69 0 l 69 972 z "},"ū":{"ha":819,"x_min":69,"x_max":750,"o":"m 167 1236 l 653 1236 l 653 1042 l 167 1042 l 167 1236 m 69 972 l 361 972 l 361 194 l 458 194 l 458 972 l 750 972 l 750 0 l 69 0 l 69 972 z "},"Ŭ":{"ha":819,"x_min":69,"x_max":750,"o":"m 167 1264 l 361 1264 l 361 1167 l 458 1167 l 458 1264 l 653 1264 l 653 1042 l 167 1042 l 167 1264 m 69 972 l 361 972 l 361 194 l 458 194 l 458 972 l 750 972 l 750 0 l 69 0 l 69 972 z "},"ŭ":{"ha":819,"x_min":69,"x_max":750,"o":"m 167 1264 l 361 1264 l 361 1167 l 458 1167 l 458 1264 l 653 1264 l 653 1042 l 167 1042 l 167 1264 m 69 972 l 361 972 l 361 194 l 458 194 l 458 972 l 750 972 l 750 0 l 69 0 l 69 972 z "},"Ů":{"ha":819,"x_min":69,"x_max":750,"o":"m 69 972 l 264 972 l 264 1069 l 167 1069 l 167 1278 l 264 1278 l 264 1375 l 556 1375 l 556 1278 l 653 1278 l 653 1069 l 556 1069 l 556 972 l 750 972 l 750 0 l 69 0 l 69 972 m 361 1222 l 361 1125 l 458 1125 l 458 1222 l 361 1222 m 361 972 l 361 194 l 458 194 l 458 972 l 361 972 z "},"ů":{"ha":819,"x_min":69,"x_max":750,"o":"m 69 972 l 264 972 l 264 1069 l 167 1069 l 167 1278 l 264 1278 l 264 1375 l 556 1375 l 556 1278 l 653 1278 l 653 1069 l 556 1069 l 556 972 l 750 972 l 750 0 l 69 0 l 69 972 m 361 1222 l 361 1125 l 458 1125 l 458 1222 l 361 1222 m 361 972 l 361 194 l 458 194 l 458 972 l 361 972 z "},"Ű":{"ha":819,"x_min":69,"x_max":750,"o":"m 750 972 l 750 0 l 69 0 l 69 972 l 167 972 l 167 1236 l 361 1236 l 361 194 l 458 194 l 458 1236 l 653 1236 l 653 972 l 750 972 z "},"ű":{"ha":819,"x_min":69,"x_max":750,"o":"m 750 972 l 750 0 l 69 0 l 69 972 l 167 972 l 167 1236 l 361 1236 l 361 194 l 458 194 l 458 1236 l 653 1236 l 653 972 l 750 972 z "},"Ų":{"ha":819,"x_min":69,"x_max":750,"o":"m 313 0 l 69 0 l 69 972 l 361 972 l 361 194 l 458 194 l 458 972 l 750 972 l 750 0 l 507 0 l 507 -153 l 604 -153 l 604 -347 l 313 -347 l 313 0 z "},"ų":{"ha":819,"x_min":69,"x_max":750,"o":"m 313 0 l 69 0 l 69 972 l 361 972 l 361 194 l 458 194 l 458 972 l 750 972 l 750 0 l 507 0 l 507 -153 l 604 -153 l 604 -347 l 313 -347 l 313 0 z "},"Ŵ":{"ha":1111,"x_min":69,"x_max":1042,"o":"m 604 1139 l 507 1139 l 507 1042 l 313 1042 l 313 1236 l 410 1236 l 410 1333 l 701 1333 l 701 1236 l 799 1236 l 799 1042 l 604 1042 l 604 1139 m 653 292 l 458 292 l 458 0 l 167 0 l 167 194 l 69 194 l 69 972 l 361 972 l 361 486 l 458 486 l 458 681 l 653 681 l 653 486 l 750 486 l 750 972 l 1042 972 l 1042 194 l 944 194 l 944 0 l 653 0 l 653 292 z "},"ŵ":{"ha":1111,"x_min":69,"x_max":1042,"o":"m 604 1139 l 507 1139 l 507 1042 l 313 1042 l 313 1236 l 410 1236 l 410 1333 l 701 1333 l 701 1236 l 799 1236 l 799 1042 l 604 1042 l 604 1139 m 653 292 l 458 292 l 458 0 l 167 0 l 167 194 l 69 194 l 69 972 l 361 972 l 361 486 l 458 486 l 458 681 l 653 681 l 653 486 l 750 486 l 750 972 l 1042 972 l 1042 194 l 944 194 l 944 0 l 653 0 l 653 292 z "},"Ŷ":{"ha":819,"x_min":69,"x_max":750,"o":"m 458 1139 l 361 1139 l 361 1042 l 167 1042 l 167 1236 l 264 1236 l 264 1333 l 556 1333 l 556 1236 l 653 1236 l 653 1042 l 458 1042 l 458 1139 m 264 486 l 69 486 l 69 972 l 361 972 l 361 681 l 458 681 l 458 972 l 750 972 l 750 486 l 556 486 l 556 0 l 264 0 l 264 486 z "},"ŷ":{"ha":819,"x_min":69,"x_max":750,"o":"m 458 1139 l 361 1139 l 361 1042 l 167 1042 l 167 1236 l 264 1236 l 264 1333 l 556 1333 l 556 1236 l 653 1236 l 653 1042 l 458 1042 l 458 1139 m 264 486 l 69 486 l 69 972 l 361 972 l 361 681 l 458 681 l 458 972 l 750 972 l 750 486 l 556 486 l 556 0 l 264 0 l 264 486 z "},"Ÿ":{"ha":819,"x_min":69,"x_max":750,"o":"m 167 1236 l 361 1236 l 361 1042 l 167 1042 l 167 1236 m 458 1236 l 653 1236 l 653 1042 l 458 1042 l 458 1236 m 264 486 l 69 486 l 69 972 l 361 972 l 361 681 l 458 681 l 458 972 l 750 972 l 750 486 l 556 486 l 556 0 l 264 0 l 264 486 z "},"Ź":{"ha":819,"x_min":69,"x_max":750,"o":"m 458 1042 l 264 1042 l 264 1236 l 361 1236 l 361 1333 l 556 1333 l 556 1139 l 458 1139 l 458 1042 m 69 486 l 264 486 l 264 583 l 458 583 l 458 778 l 69 778 l 69 972 l 750 972 l 750 486 l 556 486 l 556 389 l 361 389 l 361 194 l 750 194 l 750 0 l 69 0 l 69 486 z "},"ź":{"ha":819,"x_min":69,"x_max":750,"o":"m 458 1042 l 264 1042 l 264 1236 l 361 1236 l 361 1333 l 556 1333 l 556 1139 l 458 1139 l 458 1042 m 69 486 l 264 486 l 264 583 l 458 583 l 458 778 l 69 778 l 69 972 l 750 972 l 750 486 l 556 486 l 556 389 l 361 389 l 361 194 l 750 194 l 750 0 l 69 0 l 69 486 z "},"Ż":{"ha":819,"x_min":69,"x_max":750,"o":"m 313 1236 l 507 1236 l 507 1042 l 313 1042 l 313 1236 m 69 486 l 264 486 l 264 583 l 458 583 l 458 778 l 69 778 l 69 972 l 750 972 l 750 486 l 556 486 l 556 389 l 361 389 l 361 194 l 750 194 l 750 0 l 69 0 l 69 486 z "},"ż":{"ha":819,"x_min":69,"x_max":750,"o":"m 313 1236 l 507 1236 l 507 1042 l 313 1042 l 313 1236 m 69 486 l 264 486 l 264 583 l 458 583 l 458 778 l 69 778 l 69 972 l 750 972 l 750 486 l 556 486 l 556 389 l 361 389 l 361 194 l 750 194 l 750 0 l 69 0 l 69 486 z "},"Ž":{"ha":819,"x_min":69,"x_max":750,"o":"m 264 1139 l 167 1139 l 167 1333 l 361 1333 l 361 1236 l 458 1236 l 458 1333 l 653 1333 l 653 1139 l 556 1139 l 556 1042 l 264 1042 l 264 1139 m 69 486 l 264 486 l 264 583 l 458 583 l 458 778 l 69 778 l 69 972 l 750 972 l 750 486 l 556 486 l 556 389 l 361 389 l 361 194 l 750 194 l 750 0 l 69 0 l 69 486 z "},"ž":{"ha":819,"x_min":69,"x_max":750,"o":"m 264 1139 l 167 1139 l 167 1333 l 361 1333 l 361 1236 l 458 1236 l 458 1333 l 653 1333 l 653 1139 l 556 1139 l 556 1042 l 264 1042 l 264 1139 m 69 486 l 264 486 l 264 583 l 458 583 l 458 778 l 69 778 l 69 972 l 750 972 l 750 486 l 556 486 l 556 389 l 361 389 l 361 194 l 750 194 l 750 0 l 69 0 l 69 486 z "},"ƒ":{"ha":819,"x_min":69,"x_max":750,"o":"m 750 972 l 750 0 l 458 0 l 458 389 l 361 389 l 361 0 l 69 0 l 69 972 l 750 972 m 556 826 l 458 826 l 458 729 l 361 729 l 361 826 l 264 826 l 264 729 l 361 729 l 361 681 l 313 681 l 313 535 l 361 535 l 361 583 l 458 583 l 458 535 l 507 535 l 507 681 l 458 681 l 458 729 l 556 729 l 556 826 z "},"Ǽ":{"ha":1208,"x_min":69,"x_max":1139,"o":"m 750 1042 l 556 1042 l 556 1236 l 653 1236 l 653 1333 l 847 1333 l 847 1139 l 750 1139 l 750 1042 m 458 389 l 361 389 l 361 0 l 69 0 l 69 972 l 1139 972 l 1139 778 l 750 778 l 750 583 l 1042 583 l 1042 389 l 750 389 l 750 194 l 1139 194 l 1139 0 l 458 0 l 458 389 m 361 778 l 361 583 l 458 583 l 458 778 l 361 778 z "},"ǽ":{"ha":1208,"x_min":69,"x_max":1139,"o":"m 750 1042 l 556 1042 l 556 1236 l 653 1236 l 653 1333 l 847 1333 l 847 1139 l 750 1139 l 750 1042 m 458 389 l 361 389 l 361 0 l 69 0 l 69 972 l 1139 972 l 1139 778 l 750 778 l 750 583 l 1042 583 l 1042 389 l 750 389 l 750 194 l 1139 194 l 1139 0 l 458 0 l 458 389 m 361 778 l 361 583 l 458 583 l 458 778 l 361 778 z "},"Ǿ":{"ha":819,"x_min":69,"x_max":750,"o":"m 361 1042 l 167 1042 l 167 1236 l 264 1236 l 264 1333 l 458 1333 l 458 1139 l 361 1139 l 361 1042 m 361 -167 l 167 -167 l 167 0 l 69 0 l 69 972 l 458 972 l 458 1139 l 653 1139 l 653 972 l 750 972 l 750 0 l 361 0 l 361 -167 m 361 778 l 361 583 l 458 583 l 458 778 l 361 778 m 361 389 l 361 194 l 458 194 l 458 389 l 361 389 z "},"ǿ":{"ha":819,"x_min":69,"x_max":750,"o":"m 361 1042 l 167 1042 l 167 1236 l 264 1236 l 264 1333 l 458 1333 l 458 1139 l 361 1139 l 361 1042 m 361 -167 l 167 -167 l 167 0 l 69 0 l 69 972 l 458 972 l 458 1139 l 653 1139 l 653 972 l 750 972 l 750 0 l 361 0 l 361 -167 m 361 778 l 361 583 l 458 583 l 458 778 l 361 778 m 361 389 l 361 194 l 458 194 l 458 389 l 361 389 z "},"Ș":{"ha":819,"x_min":69,"x_max":750,"o":"m 69 194 l 458 194 l 458 389 l 69 389 l 69 972 l 750 972 l 750 778 l 361 778 l 361 583 l 750 583 l 750 0 l 69 0 l 69 194 m 361 -264 l 264 -264 l 264 -69 l 556 -69 l 556 -347 l 361 -347 l 361 -264 z "},"ș":{"ha":819,"x_min":69,"x_max":750,"o":"m 69 194 l 458 194 l 458 389 l 69 389 l 69 972 l 750 972 l 750 778 l 361 778 l 361 583 l 750 583 l 750 0 l 69 0 l 69 194 m 361 -264 l 264 -264 l 264 -69 l 556 -69 l 556 -347 l 361 -347 l 361 -264 z "},"Ț":{"ha":819,"x_min":69,"x_max":750,"o":"m 264 778 l 69 778 l 69 972 l 750 972 l 750 778 l 556 778 l 556 0 l 264 0 l 264 778 m 361 -264 l 264 -264 l 264 -69 l 556 -69 l 556 -347 l 361 -347 l 361 -264 z "},"ț":{"ha":819,"x_min":69,"x_max":750,"o":"m 264 778 l 69 778 l 69 972 l 750 972 l 750 778 l 556 778 l 556 0 l 264 0 l 264 778 m 361 -264 l 264 -264 l 264 -69 l 556 -69 l 556 -347 l 361 -347 l 361 -264 z "},"ȷ":{"ha":819,"x_min":69,"x_max":750,"o":"m 69 389 l 361 389 l 361 194 l 458 194 l 458 972 l 750 972 l 750 0 l 69 0 l 69 389 z "},"ˆ":{"ha":625,"x_min":69,"x_max":556,"o":"m 361 1139 l 264 1139 l 264 1042 l 69 1042 l 69 1236 l 167 1236 l 167 1333 l 458 1333 l 458 1236 l 556 1236 l 556 1042 l 361 1042 l 361 1139 z "},"ˇ":{"ha":625,"x_min":69,"x_max":556,"o":"m 167 1139 l 69 1139 l 69 1333 l 264 1333 l 264 1236 l 361 1236 l 361 1333 l 556 1333 l 556 1139 l 458 1139 l 458 1042 l 167 1042 l 167 1139 z "},"ˉ":{"ha":625,"x_min":69,"x_max":556,"o":"m 69 1236 l 556 1236 l 556 1042 l 69 1042 l 69 1236 z "},"˘":{"ha":625,"x_min":69,"x_max":556,"o":"m 69 1264 l 264 1264 l 264 1167 l 361 1167 l 361 1264 l 556 1264 l 556 1042 l 69 1042 l 69 1264 z "},"˙":{"ha":333,"x_min":69,"x_max":264,"o":"m 69 1236 l 264 1236 l 264 1042 l 69 1042 l 69 1236 z "},"˚":{"ha":625,"x_min":69,"x_max":556,"o":"m 167 1069 l 69 1069 l 69 1278 l 167 1278 l 167 1375 l 458 1375 l 458 1278 l 556 1278 l 556 1069 l 458 1069 l 458 972 l 167 972 l 167 1069 m 264 1222 l 264 1125 l 361 1125 l 361 1222 l 264 1222 z "},"˛":{"ha":431,"x_min":69,"x_max":361,"o":"m 69 28 l 264 28 l 264 -153 l 361 -153 l 361 -347 l 69 -347 l 69 28 z "},"˜":{"ha":722,"x_min":69,"x_max":653,"o":"m 556 1042 l 361 1042 l 361 1139 l 264 1139 l 264 1042 l 69 1042 l 69 1236 l 167 1236 l 167 1333 l 361 1333 l 361 1236 l 458 1236 l 458 1333 l 653 1333 l 653 1139 l 556 1139 l 556 1042 z "},"˝":{"ha":625,"x_min":69,"x_max":556,"o":"m 69 1236 l 264 1236 l 264 972 l 69 972 l 69 1236 m 361 1236 l 556 1236 l 556 972 l 361 972 l 361 1236 z "},"΄":{"ha":431,"x_min":69,"x_max":361,"o":"m 264 1042 l 69 1042 l 69 1236 l 167 1236 l 167 1333 l 361 1333 l 361 1139 l 264 1139 l 264 1042 z "},"΅":{"ha":917,"x_min":69,"x_max":847,"o":"m 361 1306 l 556 1306 l 556 972 l 361 972 l 361 1306 m 69 1236 l 264 1236 l 264 1042 l 69 1042 l 69 1236 m 653 1236 l 847 1236 l 847 1042 l 653 1042 l 653 1236 z "},"Ά":{"ha":1208,"x_min":69,"x_max":1139,"o":"m 264 681 l 69 681 l 69 875 l 167 875 l 167 972 l 361 972 l 361 778 l 264 778 l 264 681 m 847 389 l 750 389 l 750 0 l 458 0 l 458 972 l 1139 972 l 1139 0 l 847 0 l 847 389 m 750 778 l 750 583 l 847 583 l 847 778 l 750 778 z "},"Έ":{"ha":1208,"x_min":69,"x_max":1139,"o":"m 264 681 l 69 681 l 69 875 l 167 875 l 167 972 l 361 972 l 361 778 l 264 778 l 264 681 m 458 972 l 1139 972 l 1139 778 l 750 778 l 750 583 l 1042 583 l 1042 389 l 750 389 l 750 194 l 1139 194 l 1139 0 l 458 0 l 458 972 z "},"Ή":{"ha":1208,"x_min":69,"x_max":1139,"o":"m 264 681 l 69 681 l 69 875 l 167 875 l 167 972 l 361 972 l 361 778 l 264 778 l 264 681 m 847 389 l 750 389 l 750 0 l 458 0 l 458 972 l 750 972 l 750 583 l 847 583 l 847 972 l 1139 972 l 1139 0 l 847 0 l 847 389 z "},"Ί":{"ha":819,"x_min":69,"x_max":750,"o":"m 264 681 l 69 681 l 69 875 l 167 875 l 167 972 l 361 972 l 361 778 l 264 778 l 264 681 m 458 972 l 750 972 l 750 0 l 458 0 l 458 972 z "},"Ό":{"ha":1208,"x_min":69,"x_max":1139,"o":"m 264 681 l 69 681 l 69 875 l 167 875 l 167 972 l 361 972 l 361 778 l 264 778 l 264 681 m 458 972 l 1139 972 l 1139 0 l 458 0 l 458 972 m 750 778 l 750 194 l 847 194 l 847 778 l 750 778 z "},"Ύ":{"ha":1208,"x_min":69,"x_max":1139,"o":"m 264 681 l 69 681 l 69 875 l 167 875 l 167 972 l 361 972 l 361 778 l 264 778 l 264 681 m 653 486 l 458 486 l 458 972 l 750 972 l 750 681 l 847 681 l 847 972 l 1139 972 l 1139 486 l 944 486 l 944 0 l 653 0 l 653 486 z "},"Ώ":{"ha":1403,"x_min":69,"x_max":1333,"o":"m 264 681 l 69 681 l 69 875 l 167 875 l 167 972 l 361 972 l 361 778 l 264 778 l 264 681 m 944 389 l 1042 389 l 1042 778 l 750 778 l 750 389 l 847 389 l 847 0 l 458 0 l 458 194 l 653 194 l 653 292 l 458 292 l 458 972 l 1333 972 l 1333 292 l 1139 292 l 1139 194 l 1333 194 l 1333 0 l 944 0 l 944 389 z "},"ΐ":{"ha":431,"x_min":-174,"x_max":604,"o":"m 69 972 l 118 972 l 118 1306 l 313 1306 l 313 972 l 361 972 l 361 0 l 69 0 l 69 972 m -174 1236 l 21 1236 l 21 1042 l -174 1042 l -174 1236 m 410 1236 l 604 1236 l 604 1042 l 410 1042 l 410 1236 z "},"Α":{"ha":819,"x_min":69,"x_max":750,"o":"m 458 389 l 361 389 l 361 0 l 69 0 l 69 972 l 750 972 l 750 0 l 458 0 l 458 389 m 361 778 l 361 583 l 458 583 l 458 778 l 361 778 z "},"Β":{"ha":819,"x_min":69,"x_max":750,"o":"m 69 972 l 750 972 l 750 583 l 653 583 l 653 486 l 750 486 l 750 0 l 69 0 l 69 972 m 361 778 l 361 583 l 458 583 l 458 778 l 361 778 m 361 389 l 361 194 l 458 194 l 458 389 l 361 389 z "},"Γ":{"ha":819,"x_min":69,"x_max":750,"o":"m 69 972 l 750 972 l 750 778 l 361 778 l 361 0 l 69 0 l 69 972 z "},"Δ":{"ha":819,"x_min":69,"x_max":750,"o":"m 69 583 l 167 583 l 167 778 l 264 778 l 264 972 l 556 972 l 556 778 l 653 778 l 653 583 l 750 583 l 750 0 l 69 0 l 69 583 m 361 486 l 361 194 l 458 194 l 458 486 l 361 486 z "},"Ε":{"ha":819,"x_min":69,"x_max":750,"o":"m 69 972 l 750 972 l 750 778 l 361 778 l 361 583 l 653 583 l 653 389 l 361 389 l 361 194 l 750 194 l 750 0 l 69 0 l 69 972 z "},"Ζ":{"ha":819,"x_min":69,"x_max":750,"o":"m 69 486 l 264 486 l 264 583 l 458 583 l 458 778 l 69 778 l 69 972 l 750 972 l 750 486 l 556 486 l 556 389 l 361 389 l 361 194 l 750 194 l 750 0 l 69 0 l 69 486 z "},"Η":{"ha":819,"x_min":69,"x_max":750,"o":"m 458 389 l 361 389 l 361 0 l 69 0 l 69 972 l 361 972 l 361 583 l 458 583 l 458 972 l 750 972 l 750 0 l 458 0 l 458 389 z "},"Θ":{"ha":819,"x_min":69,"x_max":750,"o":"m 69 972 l 750 972 l 750 0 l 69 0 l 69 972 m 361 778 l 361 583 l 458 583 l 458 778 l 361 778 m 361 389 l 361 194 l 458 194 l 458 389 l 361 389 z "},"Ι":{"ha":431,"x_min":69,"x_max":361,"o":"m 69 972 l 361 972 l 361 0 l 69 0 l 69 972 z "},"Κ":{"ha":819,"x_min":69,"x_max":750,"o":"m 458 292 l 361 292 l 361 0 l 69 0 l 69 972 l 361 972 l 361 681 l 458 681 l 458 972 l 750 972 l 750 583 l 556 583 l 556 486 l 750 486 l 750 0 l 458 0 l 458 292 z "},"Λ":{"ha":819,"x_min":69,"x_max":750,"o":"m 458 486 l 361 486 l 361 0 l 69 0 l 69 583 l 167 583 l 167 778 l 264 778 l 264 972 l 556 972 l 556 778 l 653 778 l 653 583 l 750 583 l 750 0 l 458 0 l 458 486 z "},"Μ":{"ha":1111,"x_min":69,"x_max":1042,"o":"m 750 389 l 653 389 l 653 194 l 458 194 l 458 389 l 361 389 l 361 0 l 69 0 l 69 972 l 361 972 l 361 778 l 458 778 l 458 583 l 653 583 l 653 778 l 750 778 l 750 972 l 1042 972 l 1042 0 l 750 0 l 750 389 z "},"Ν":{"ha":917,"x_min":69,"x_max":847,"o":"m 556 194 l 458 194 l 458 389 l 361 389 l 361 0 l 69 0 l 69 972 l 361 972 l 361 778 l 458 778 l 458 583 l 556 583 l 556 972 l 847 972 l 847 0 l 556 0 l 556 194 z "},"Ξ":{"ha":819,"x_min":69,"x_max":750,"o":"m 69 972 l 750 972 l 750 778 l 69 778 l 69 972 m 264 583 l 556 583 l 556 389 l 264 389 l 264 583 m 69 194 l 750 194 l 750 0 l 69 0 l 69 194 z "},"Ο":{"ha":819,"x_min":69,"x_max":750,"o":"m 69 972 l 750 972 l 750 0 l 69 0 l 69 972 m 361 778 l 361 194 l 458 194 l 458 778 l 361 778 z "},"Π":{"ha":819,"x_min":69,"x_max":750,"o":"m 458 778 l 361 778 l 361 0 l 69 0 l 69 972 l 750 972 l 750 0 l 458 0 l 458 778 z "},"Ρ":{"ha":819,"x_min":69,"x_max":750,"o":"m 69 972 l 750 972 l 750 389 l 361 389 l 361 0 l 69 0 l 69 972 m 361 778 l 361 583 l 458 583 l 458 778 l 361 778 z "},"Σ":{"ha":819,"x_min":69,"x_max":750,"o":"m 69 389 l 264 389 l 264 583 l 69 583 l 69 972 l 750 972 l 750 778 l 410 778 l 410 681 l 507 681 l 507 583 l 653 583 l 653 389 l 507 389 l 507 292 l 410 292 l 410 194 l 750 194 l 750 0 l 69 0 l 69 389 z "},"Τ":{"ha":819,"x_min":69,"x_max":750,"o":"m 264 778 l 69 778 l 69 972 l 750 972 l 750 778 l 556 778 l 556 0 l 264 0 l 264 778 z "},"Υ":{"ha":819,"x_min":69,"x_max":750,"o":"m 264 486 l 69 486 l 69 972 l 361 972 l 361 681 l 458 681 l 458 972 l 750 972 l 750 486 l 556 486 l 556 0 l 264 0 l 264 486 z "},"Φ":{"ha":1208,"x_min":69,"x_max":1139,"o":"m 750 0 l 458 0 l 458 194 l 69 194 l 69 778 l 458 778 l 458 972 l 750 972 l 750 778 l 1139 778 l 1139 194 l 750 194 l 750 0 m 361 583 l 361 389 l 458 389 l 458 583 l 361 583 m 750 583 l 750 389 l 847 389 l 847 583 l 750 583 z "},"Χ":{"ha":819,"x_min":69,"x_max":750,"o":"m 458 292 l 361 292 l 361 0 l 69 0 l 69 486 l 264 486 l 264 583 l 69 583 l 69 972 l 361 972 l 361 681 l 458 681 l 458 972 l 750 972 l 750 583 l 556 583 l 556 486 l 750 486 l 750 0 l 458 0 l 458 292 z "},"Ψ":{"ha":1208,"x_min":69,"x_max":1139,"o":"m 458 389 l 69 389 l 69 972 l 361 972 l 361 583 l 458 583 l 458 972 l 750 972 l 750 583 l 847 583 l 847 972 l 1139 972 l 1139 389 l 750 389 l 750 0 l 458 0 l 458 389 z "},"Ω":{"ha":1014,"x_min":69,"x_max":944,"o":"m 556 403 l 653 403 l 653 778 l 361 778 l 361 403 l 458 403 l 458 0 l 69 0 l 69 194 l 264 194 l 264 306 l 69 306 l 69 972 l 944 972 l 944 306 l 750 306 l 750 194 l 944 194 l 944 0 l 556 0 l 556 403 z "},"Ϊ":{"ha":431,"x_min":-28,"x_max":458,"o":"m -28 1236 l 167 1236 l 167 1042 l -28 1042 l -28 1236 m 264 1236 l 458 1236 l 458 1042 l 264 1042 l 264 1236 m 69 972 l 361 972 l 361 0 l 69 0 l 69 972 z "},"Ϋ":{"ha":819,"x_min":69,"x_max":750,"o":"m 167 1236 l 361 1236 l 361 1042 l 167 1042 l 167 1236 m 458 1236 l 653 1236 l 653 1042 l 458 1042 l 458 1236 m 264 486 l 69 486 l 69 972 l 361 972 l 361 681 l 458 681 l 458 972 l 750 972 l 750 486 l 556 486 l 556 0 l 264 0 l 264 486 z "},"ά":{"ha":819,"x_min":69,"x_max":750,"o":"m 507 1042 l 313 1042 l 313 1236 l 410 1236 l 410 1333 l 604 1333 l 604 1139 l 507 1139 l 507 1042 m 458 389 l 361 389 l 361 0 l 69 0 l 69 972 l 750 972 l 750 0 l 458 0 l 458 389 m 361 778 l 361 583 l 458 583 l 458 778 l 361 778 z "},"έ":{"ha":819,"x_min":69,"x_max":750,"o":"m 507 1042 l 313 1042 l 313 1236 l 410 1236 l 410 1333 l 604 1333 l 604 1139 l 507 1139 l 507 1042 m 69 972 l 750 972 l 750 778 l 361 778 l 361 583 l 653 583 l 653 389 l 361 389 l 361 194 l 750 194 l 750 0 l 69 0 l 69 972 z "},"ή":{"ha":819,"x_min":69,"x_max":750,"o":"m 507 1042 l 313 1042 l 313 1236 l 410 1236 l 410 1333 l 604 1333 l 604 1139 l 507 1139 l 507 1042 m 458 389 l 361 389 l 361 0 l 69 0 l 69 972 l 361 972 l 361 583 l 458 583 l 458 972 l 750 972 l 750 0 l 458 0 l 458 389 z "},"ί":{"ha":431,"x_min":69,"x_max":410,"o":"m 313 1042 l 118 1042 l 118 1236 l 215 1236 l 215 1333 l 410 1333 l 410 1139 l 313 1139 l 313 1042 m 69 972 l 361 972 l 361 0 l 69 0 l 69 972 z "},"ΰ":{"ha":819,"x_min":21,"x_max":799,"o":"m 264 486 l 69 486 l 69 972 l 313 972 l 313 1306 l 507 1306 l 507 972 l 750 972 l 750 486 l 556 486 l 556 0 l 264 0 l 264 486 m 21 1236 l 215 1236 l 215 1042 l 21 1042 l 21 1236 m 604 1236 l 799 1236 l 799 1042 l 604 1042 l 604 1236 m 361 972 l 361 681 l 458 681 l 458 972 l 361 972 z "},"α":{"ha":819,"x_min":69,"x_max":750,"o":"m 458 389 l 361 389 l 361 0 l 69 0 l 69 972 l 750 972 l 750 0 l 458 0 l 458 389 m 361 778 l 361 583 l 458 583 l 458 778 l 361 778 z "},"β":{"ha":819,"x_min":69,"x_max":750,"o":"m 69 972 l 750 972 l 750 583 l 653 583 l 653 486 l 750 486 l 750 0 l 69 0 l 69 972 m 361 778 l 361 583 l 458 583 l 458 778 l 361 778 m 361 389 l 361 194 l 458 194 l 458 389 l 361 389 z "},"γ":{"ha":819,"x_min":69,"x_max":750,"o":"m 69 972 l 750 972 l 750 778 l 361 778 l 361 0 l 69 0 l 69 972 z "},"δ":{"ha":819,"x_min":69,"x_max":750,"o":"m 69 583 l 167 583 l 167 778 l 264 778 l 264 972 l 556 972 l 556 778 l 653 778 l 653 583 l 750 583 l 750 0 l 69 0 l 69 583 m 361 486 l 361 194 l 458 194 l 458 486 l 361 486 z "},"ε":{"ha":819,"x_min":69,"x_max":750,"o":"m 69 972 l 750 972 l 750 778 l 361 778 l 361 583 l 653 583 l 653 389 l 361 389 l 361 194 l 750 194 l 750 0 l 69 0 l 69 972 z "},"ζ":{"ha":819,"x_min":69,"x_max":750,"o":"m 69 486 l 264 486 l 264 583 l 458 583 l 458 778 l 69 778 l 69 972 l 750 972 l 750 486 l 556 486 l 556 389 l 361 389 l 361 194 l 750 194 l 750 0 l 69 0 l 69 486 z "},"η":{"ha":819,"x_min":69,"x_max":750,"o":"m 458 389 l 361 389 l 361 0 l 69 0 l 69 972 l 361 972 l 361 583 l 458 583 l 458 972 l 750 972 l 750 0 l 458 0 l 458 389 z "},"θ":{"ha":819,"x_min":69,"x_max":750,"o":"m 69 972 l 750 972 l 750 0 l 69 0 l 69 972 m 361 778 l 361 583 l 458 583 l 458 778 l 361 778 m 361 389 l 361 194 l 458 194 l 458 389 l 361 389 z "},"ι":{"ha":431,"x_min":69,"x_max":361,"o":"m 69 972 l 361 972 l 361 0 l 69 0 l 69 972 z "},"κ":{"ha":819,"x_min":69,"x_max":750,"o":"m 458 292 l 361 292 l 361 0 l 69 0 l 69 972 l 361 972 l 361 681 l 458 681 l 458 972 l 750 972 l 750 583 l 556 583 l 556 486 l 750 486 l 750 0 l 458 0 l 458 292 z "},"λ":{"ha":819,"x_min":69,"x_max":750,"o":"m 458 486 l 361 486 l 361 0 l 69 0 l 69 583 l 167 583 l 167 778 l 264 778 l 264 972 l 556 972 l 556 778 l 653 778 l 653 583 l 750 583 l 750 0 l 458 0 l 458 486 z "},"μ":{"ha":1111,"x_min":69,"x_max":1042,"o":"m 750 389 l 653 389 l 653 194 l 458 194 l 458 389 l 361 389 l 361 0 l 69 0 l 69 972 l 361 972 l 361 778 l 458 778 l 458 583 l 653 583 l 653 778 l 750 778 l 750 972 l 1042 972 l 1042 0 l 750 0 l 750 389 z "},"ν":{"ha":917,"x_min":69,"x_max":847,"o":"m 556 194 l 458 194 l 458 389 l 361 389 l 361 0 l 69 0 l 69 972 l 361 972 l 361 778 l 458 778 l 458 583 l 556 583 l 556 972 l 847 972 l 847 0 l 556 0 l 556 194 z "},"ξ":{"ha":819,"x_min":69,"x_max":750,"o":"m 69 972 l 750 972 l 750 778 l 69 778 l 69 972 m 264 583 l 556 583 l 556 389 l 264 389 l 264 583 m 69 194 l 750 194 l 750 0 l 69 0 l 69 194 z "},"ο":{"ha":819,"x_min":69,"x_max":750,"o":"m 69 972 l 750 972 l 750 0 l 69 0 l 69 972 m 361 778 l 361 194 l 458 194 l 458 778 l 361 778 z "},"π":{"ha":819,"x_min":69,"x_max":750,"o":"m 458 778 l 361 778 l 361 0 l 69 0 l 69 972 l 750 972 l 750 0 l 458 0 l 458 778 z "},"ρ":{"ha":819,"x_min":69,"x_max":750,"o":"m 69 972 l 750 972 l 750 389 l 361 389 l 361 0 l 69 0 l 69 972 m 361 778 l 361 583 l 458 583 l 458 778 l 361 778 z "},"ς":{"ha":819,"x_min":69,"x_max":750,"o":"m 69 389 l 264 389 l 264 583 l 69 583 l 69 972 l 750 972 l 750 778 l 410 778 l 410 681 l 507 681 l 507 583 l 653 583 l 653 389 l 507 389 l 507 292 l 410 292 l 410 194 l 750 194 l 750 0 l 69 0 l 69 389 z "},"σ":{"ha":819,"x_min":69,"x_max":750,"o":"m 69 389 l 264 389 l 264 583 l 69 583 l 69 972 l 750 972 l 750 778 l 410 778 l 410 681 l 507 681 l 507 583 l 653 583 l 653 389 l 507 389 l 507 292 l 410 292 l 410 194 l 750 194 l 750 0 l 69 0 l 69 389 z "},"τ":{"ha":819,"x_min":69,"x_max":750,"o":"m 264 778 l 69 778 l 69 972 l 750 972 l 750 778 l 556 778 l 556 0 l 264 0 l 264 778 z "},"υ":{"ha":819,"x_min":69,"x_max":750,"o":"m 264 486 l 69 486 l 69 972 l 361 972 l 361 681 l 458 681 l 458 972 l 750 972 l 750 486 l 556 486 l 556 0 l 264 0 l 264 486 z "},"φ":{"ha":1208,"x_min":69,"x_max":1139,"o":"m 750 0 l 458 0 l 458 194 l 69 194 l 69 778 l 458 778 l 458 972 l 750 972 l 750 778 l 1139 778 l 1139 194 l 750 194 l 750 0 m 361 583 l 361 389 l 458 389 l 458 583 l 361 583 m 750 583 l 750 389 l 847 389 l 847 583 l 750 583 z "},"χ":{"ha":819,"x_min":69,"x_max":750,"o":"m 458 292 l 361 292 l 361 0 l 69 0 l 69 486 l 264 486 l 264 583 l 69 583 l 69 972 l 361 972 l 361 681 l 458 681 l 458 972 l 750 972 l 750 583 l 556 583 l 556 486 l 750 486 l 750 0 l 458 0 l 458 292 z "},"ψ":{"ha":1208,"x_min":69,"x_max":1139,"o":"m 458 389 l 69 389 l 69 972 l 361 972 l 361 583 l 458 583 l 458 972 l 750 972 l 750 583 l 847 583 l 847 972 l 1139 972 l 1139 389 l 750 389 l 750 0 l 458 0 l 458 389 z "},"ω":{"ha":1014,"x_min":69,"x_max":944,"o":"m 556 389 l 653 389 l 653 778 l 361 778 l 361 389 l 458 389 l 458 0 l 69 0 l 69 194 l 264 194 l 264 292 l 69 292 l 69 972 l 944 972 l 944 292 l 750 292 l 750 194 l 944 194 l 944 0 l 556 0 l 556 389 z "},"ϊ":{"ha":431,"x_min":-125,"x_max":361,"o":"m -125 1236 l 69 1236 l 69 1042 l -125 1042 l -125 1236 m 167 1236 l 361 1236 l 361 1042 l 167 1042 l 167 1236 m 69 972 l 361 972 l 361 0 l 69 0 l 69 972 z "},"ϋ":{"ha":819,"x_min":69,"x_max":750,"o":"m 69 1236 l 264 1236 l 264 1042 l 69 1042 l 69 1236 m 361 1236 l 556 1236 l 556 1042 l 361 1042 l 361 1236 m 264 486 l 69 486 l 69 972 l 361 972 l 361 681 l 458 681 l 458 972 l 750 972 l 750 486 l 556 486 l 556 0 l 264 0 l 264 486 z "},"ό":{"ha":819,"x_min":69,"x_max":750,"o":"m 507 1042 l 313 1042 l 313 1236 l 410 1236 l 410 1333 l 604 1333 l 604 1139 l 507 1139 l 507 1042 m 69 972 l 750 972 l 750 0 l 69 0 l 69 972 m 361 778 l 361 194 l 458 194 l 458 778 l 361 778 z "},"ύ":{"ha":819,"x_min":69,"x_max":750,"o":"m 507 1042 l 313 1042 l 313 1236 l 410 1236 l 410 1333 l 604 1333 l 604 1139 l 507 1139 l 507 1042 m 264 486 l 69 486 l 69 972 l 361 972 l 361 681 l 458 681 l 458 972 l 750 972 l 750 486 l 556 486 l 556 0 l 264 0 l 264 486 z "},"ώ":{"ha":1014,"x_min":69,"x_max":944,"o":"m 604 1042 l 410 1042 l 410 1236 l 507 1236 l 507 1333 l 701 1333 l 701 1139 l 604 1139 l 604 1042 m 556 389 l 653 389 l 653 778 l 361 778 l 361 389 l 458 389 l 458 0 l 69 0 l 69 194 l 264 194 l 264 292 l 69 292 l 69 972 l 944 972 l 944 292 l 750 292 l 750 194 l 944 194 l 944 0 l 556 0 l 556 389 z "},"Ѐ":{"ha":819,"x_min":69,"x_max":750,"o":"m 361 1139 l 264 1139 l 264 1333 l 458 1333 l 458 1236 l 556 1236 l 556 1042 l 361 1042 l 361 1139 m 69 972 l 750 972 l 750 778 l 361 778 l 361 583 l 653 583 l 653 389 l 361 389 l 361 194 l 750 194 l 750 0 l 69 0 l 69 972 z "},"Ё":{"ha":819,"x_min":69,"x_max":750,"o":"m 167 1236 l 361 1236 l 361 1042 l 167 1042 l 167 1236 m 458 1236 l 653 1236 l 653 1042 l 458 1042 l 458 1236 m 69 972 l 750 972 l 750 778 l 361 778 l 361 583 l 653 583 l 653 389 l 361 389 l 361 194 l 750 194 l 750 0 l 69 0 l 69 972 z "},"Ђ":{"ha":1111,"x_min":69,"x_max":1042,"o":"m 931 0 l 653 0 l 653 194 l 750 194 l 750 389 l 556 389 l 556 0 l 264 0 l 264 778 l 69 778 l 69 972 l 750 972 l 750 778 l 556 778 l 556 583 l 1042 583 l 1042 97 l 931 97 l 931 0 z "},"Ѓ":{"ha":819,"x_min":69,"x_max":750,"o":"m 507 1042 l 313 1042 l 313 1236 l 410 1236 l 410 1333 l 604 1333 l 604 1139 l 507 1139 l 507 1042 m 69 972 l 750 972 l 750 778 l 361 778 l 361 0 l 69 0 l 69 972 z "},"Є":{"ha":819,"x_min":69,"x_max":750,"o":"m 167 97 l 69 97 l 69 875 l 167 875 l 167 972 l 750 972 l 750 778 l 361 778 l 361 583 l 653 583 l 653 389 l 361 389 l 361 194 l 750 194 l 750 0 l 167 0 l 167 97 z "},"Ѕ":{"ha":819,"x_min":69,"x_max":750,"o":"m 69 194 l 458 194 l 458 389 l 69 389 l 69 972 l 750 972 l 750 778 l 361 778 l 361 583 l 750 583 l 750 0 l 69 0 l 69 194 z "},"І":{"ha":431,"x_min":69,"x_max":361,"o":"m 69 972 l 361 972 l 361 0 l 69 0 l 69 972 z "},"Ї":{"ha":431,"x_min":-28,"x_max":458,"o":"m -28 1236 l 167 1236 l 167 1042 l -28 1042 l -28 1236 m 264 1236 l 458 1236 l 458 1042 l 264 1042 l 264 1236 m 69 972 l 361 972 l 361 0 l 69 0 l 69 972 z "},"Ј":{"ha":819,"x_min":69,"x_max":750,"o":"m 69 389 l 361 389 l 361 194 l 458 194 l 458 972 l 750 972 l 750 0 l 69 0 l 69 389 z "},"Љ":{"ha":1306,"x_min":69,"x_max":1236,"o":"m 556 778 l 458 778 l 458 194 l 361 194 l 361 0 l 69 0 l 69 292 l 167 292 l 167 972 l 847 972 l 847 583 l 1236 583 l 1236 0 l 556 0 l 556 778 m 847 389 l 847 194 l 944 194 l 944 389 l 847 389 z "},"Њ":{"ha":1208,"x_min":69,"x_max":1139,"o":"m 458 389 l 361 389 l 361 0 l 69 0 l 69 972 l 361 972 l 361 583 l 458 583 l 458 972 l 750 972 l 750 583 l 1139 583 l 1139 0 l 458 0 l 458 389 m 750 389 l 750 194 l 847 194 l 847 389 l 750 389 z "},"Ћ":{"ha":1014,"x_min":69,"x_max":944,"o":"m 653 389 l 556 389 l 556 0 l 264 0 l 264 778 l 69 778 l 69 972 l 750 972 l 750 778 l 556 778 l 556 583 l 944 583 l 944 0 l 653 0 l 653 389 z "},"Ќ":{"ha":819,"x_min":69,"x_max":750,"o":"m 507 1042 l 313 1042 l 313 1236 l 410 1236 l 410 1333 l 604 1333 l 604 1139 l 507 1139 l 507 1042 m 458 292 l 361 292 l 361 0 l 69 0 l 69 972 l 361 972 l 361 681 l 458 681 l 458 972 l 750 972 l 750 583 l 556 583 l 556 486 l 750 486 l 750 0 l 458 0 l 458 292 z "},"Ѝ":{"ha":917,"x_min":69,"x_max":847,"o":"m 410 1139 l 313 1139 l 313 1333 l 507 1333 l 507 1236 l 604 1236 l 604 1042 l 410 1042 l 410 1139 m 556 389 l 458 389 l 458 194 l 361 194 l 361 0 l 69 0 l 69 972 l 361 972 l 361 583 l 458 583 l 458 778 l 556 778 l 556 972 l 847 972 l 847 0 l 556 0 l 556 389 z "},"Ў":{"ha":819,"x_min":69,"x_max":750,"o":"m 167 1264 l 361 1264 l 361 1167 l 458 1167 l 458 1264 l 653 1264 l 653 1042 l 167 1042 l 167 1264 m 69 194 l 276 194 l 276 389 l 174 389 l 174 583 l 69 583 l 69 972 l 361 972 l 361 583 l 458 583 l 458 972 l 750 972 l 750 583 l 653 583 l 653 389 l 556 389 l 556 194 l 458 194 l 458 0 l 69 0 l 69 194 z "},"Џ":{"ha":819,"x_min":69,"x_max":750,"o":"m 507 -194 l 313 -194 l 313 0 l 69 0 l 69 972 l 361 972 l 361 194 l 458 194 l 458 972 l 750 972 l 750 0 l 507 0 l 507 -194 z "},"А":{"ha":819,"x_min":69,"x_max":750,"o":"m 458 389 l 361 389 l 361 0 l 69 0 l 69 972 l 750 972 l 750 0 l 458 0 l 458 389 m 361 778 l 361 583 l 458 583 l 458 778 l 361 778 z "},"Б":{"ha":819,"x_min":69,"x_max":750,"o":"m 69 972 l 750 972 l 750 778 l 361 778 l 361 583 l 750 583 l 750 0 l 69 0 l 69 972 m 361 389 l 361 194 l 458 194 l 458 389 l 361 389 z "},"В":{"ha":819,"x_min":69,"x_max":750,"o":"m 69 972 l 750 972 l 750 583 l 653 583 l 653 486 l 750 486 l 750 0 l 69 0 l 69 972 m 361 778 l 361 583 l 458 583 l 458 778 l 361 778 m 361 389 l 361 194 l 458 194 l 458 389 l 361 389 z "},"Г":{"ha":819,"x_min":69,"x_max":750,"o":"m 69 972 l 750 972 l 750 778 l 361 778 l 361 0 l 69 0 l 69 972 z "},"Д":{"ha":1111,"x_min":69,"x_max":1042,"o":"m 847 0 l 264 0 l 264 -194 l 69 -194 l 69 194 l 167 194 l 167 389 l 264 389 l 264 972 l 944 972 l 944 194 l 1042 194 l 1042 -194 l 847 -194 l 847 0 m 556 778 l 556 292 l 458 292 l 458 194 l 653 194 l 653 778 l 556 778 z "},"Е":{"ha":819,"x_min":69,"x_max":750,"o":"m 69 972 l 750 972 l 750 778 l 361 778 l 361 583 l 653 583 l 653 389 l 361 389 l 361 194 l 750 194 l 750 0 l 69 0 l 69 972 z "},"Ж":{"ha":1208,"x_min":69,"x_max":1139,"o":"m 847 292 l 750 292 l 750 0 l 458 0 l 458 292 l 361 292 l 361 0 l 69 0 l 69 486 l 264 486 l 264 583 l 69 583 l 69 972 l 361 972 l 361 681 l 458 681 l 458 972 l 750 972 l 750 681 l 847 681 l 847 972 l 1139 972 l 1139 583 l 944 583 l 944 486 l 1139 486 l 1139 0 l 847 0 l 847 292 z "},"З":{"ha":819,"x_min":69,"x_max":750,"o":"m 69 194 l 458 194 l 458 389 l 167 389 l 167 583 l 458 583 l 458 778 l 69 778 l 69 972 l 750 972 l 750 583 l 653 583 l 653 486 l 750 486 l 750 0 l 69 0 l 69 194 z "},"И":{"ha":917,"x_min":69,"x_max":847,"o":"m 556 389 l 458 389 l 458 194 l 361 194 l 361 0 l 69 0 l 69 972 l 361 972 l 361 583 l 458 583 l 458 778 l 556 778 l 556 972 l 847 972 l 847 0 l 556 0 l 556 389 z "},"Й":{"ha":917,"x_min":69,"x_max":847,"o":"m 215 1264 l 410 1264 l 410 1167 l 507 1167 l 507 1264 l 701 1264 l 701 1042 l 215 1042 l 215 1264 m 556 389 l 458 389 l 458 194 l 361 194 l 361 0 l 69 0 l 69 972 l 361 972 l 361 583 l 458 583 l 458 778 l 556 778 l 556 972 l 847 972 l 847 0 l 556 0 l 556 389 z "},"К":{"ha":819,"x_min":69,"x_max":750,"o":"m 458 292 l 361 292 l 361 0 l 69 0 l 69 972 l 361 972 l 361 681 l 458 681 l 458 972 l 750 972 l 750 583 l 556 583 l 556 486 l 750 486 l 750 0 l 458 0 l 458 292 z "},"Л":{"ha":917,"x_min":69,"x_max":847,"o":"m 556 778 l 458 778 l 458 194 l 361 194 l 361 0 l 69 0 l 69 292 l 167 292 l 167 972 l 847 972 l 847 0 l 556 0 l 556 778 z "},"М":{"ha":1111,"x_min":69,"x_max":1042,"o":"m 750 389 l 653 389 l 653 194 l 458 194 l 458 389 l 361 389 l 361 0 l 69 0 l 69 972 l 361 972 l 361 778 l 458 778 l 458 583 l 653 583 l 653 778 l 750 778 l 750 972 l 1042 972 l 1042 0 l 750 0 l 750 389 z "},"Н":{"ha":819,"x_min":69,"x_max":750,"o":"m 458 389 l 361 389 l 361 0 l 69 0 l 69 972 l 361 972 l 361 583 l 458 583 l 458 972 l 750 972 l 750 0 l 458 0 l 458 389 z "},"О":{"ha":819,"x_min":69,"x_max":750,"o":"m 69 972 l 750 972 l 750 0 l 69 0 l 69 972 m 361 778 l 361 194 l 458 194 l 458 778 l 361 778 z "},"П":{"ha":819,"x_min":69,"x_max":750,"o":"m 458 778 l 361 778 l 361 0 l 69 0 l 69 972 l 750 972 l 750 0 l 458 0 l 458 778 z "},"Р":{"ha":819,"x_min":69,"x_max":750,"o":"m 69 972 l 750 972 l 750 389 l 361 389 l 361 0 l 69 0 l 69 972 m 361 778 l 361 583 l 458 583 l 458 778 l 361 778 z "},"С":{"ha":722,"x_min":69,"x_max":653,"o":"m 69 972 l 653 972 l 653 778 l 361 778 l 361 194 l 653 194 l 653 0 l 69 0 l 69 972 z "},"Т":{"ha":819,"x_min":69,"x_max":750,"o":"m 264 778 l 69 778 l 69 972 l 750 972 l 750 778 l 556 778 l 556 0 l 264 0 l 264 778 z "},"У":{"ha":819,"x_min":69,"x_max":750,"o":"m 69 194 l 276 194 l 276 389 l 174 389 l 174 583 l 69 583 l 69 972 l 361 972 l 361 583 l 458 583 l 458 972 l 750 972 l 750 583 l 653 583 l 653 389 l 556 389 l 556 194 l 458 194 l 458 0 l 69 0 l 69 194 z "},"Ф":{"ha":1208,"x_min":69,"x_max":1139,"o":"m 750 0 l 458 0 l 458 194 l 69 194 l 69 778 l 458 778 l 458 972 l 750 972 l 750 778 l 1139 778 l 1139 194 l 750 194 l 750 0 m 361 583 l 361 389 l 458 389 l 458 583 l 361 583 m 750 583 l 750 389 l 847 389 l 847 583 l 750 583 z "},"Х":{"ha":819,"x_min":69,"x_max":750,"o":"m 458 292 l 361 292 l 361 0 l 69 0 l 69 486 l 264 486 l 264 583 l 69 583 l 69 972 l 361 972 l 361 681 l 458 681 l 458 972 l 750 972 l 750 583 l 556 583 l 556 486 l 750 486 l 750 0 l 458 0 l 458 292 z "},"Ц":{"ha":917,"x_min":69,"x_max":847,"o":"m 653 0 l 69 0 l 69 972 l 361 972 l 361 194 l 458 194 l 458 972 l 750 972 l 750 194 l 847 194 l 847 -194 l 653 -194 l 653 0 z "},"Ч":{"ha":819,"x_min":69,"x_max":750,"o":"m 458 389 l 69 389 l 69 972 l 361 972 l 361 583 l 458 583 l 458 972 l 750 972 l 750 0 l 458 0 l 458 389 z "},"Ш":{"ha":1208,"x_min":69,"x_max":1139,"o":"m 69 972 l 361 972 l 361 194 l 458 194 l 458 972 l 750 972 l 750 194 l 847 194 l 847 972 l 1139 972 l 1139 0 l 69 0 l 69 972 z "},"Щ":{"ha":1306,"x_min":69,"x_max":1236,"o":"m 1042 0 l 69 0 l 69 972 l 361 972 l 361 194 l 458 194 l 458 972 l 750 972 l 750 194 l 847 194 l 847 972 l 1139 972 l 1139 194 l 1236 194 l 1236 -194 l 1042 -194 l 1042 0 z "},"Ъ":{"ha":1014,"x_min":69,"x_max":944,"o":"m 264 778 l 69 778 l 69 972 l 556 972 l 556 583 l 944 583 l 944 0 l 264 0 l 264 778 m 556 389 l 556 194 l 653 194 l 653 389 l 556 389 z "},"Ы":{"ha":1208,"x_min":69,"x_max":1139,"o":"m 69 972 l 361 972 l 361 583 l 750 583 l 750 0 l 69 0 l 69 972 m 847 972 l 1139 972 l 1139 0 l 847 0 l 847 972 m 361 389 l 361 194 l 458 194 l 458 389 l 361 389 z "},"Ь":{"ha":819,"x_min":69,"x_max":750,"o":"m 69 972 l 361 972 l 361 583 l 750 583 l 750 0 l 69 0 l 69 972 m 361 389 l 361 194 l 458 194 l 458 389 l 361 389 z "},"Э":{"ha":819,"x_min":69,"x_max":750,"o":"m 69 194 l 458 194 l 458 389 l 167 389 l 167 583 l 458 583 l 458 778 l 69 778 l 69 972 l 653 972 l 653 875 l 750 875 l 750 97 l 653 97 l 653 0 l 69 0 l 69 194 z "},"Ю":{"ha":1208,"x_min":69,"x_max":1139,"o":"m 458 389 l 361 389 l 361 0 l 69 0 l 69 972 l 361 972 l 361 583 l 458 583 l 458 972 l 1139 972 l 1139 0 l 458 0 l 458 389 m 750 778 l 750 194 l 847 194 l 847 778 l 750 778 z "},"Я":{"ha":819,"x_min":69,"x_max":750,"o":"m 458 389 l 361 389 l 361 0 l 69 0 l 69 486 l 167 486 l 167 583 l 69 583 l 69 972 l 750 972 l 750 0 l 458 0 l 458 389 m 361 778 l 361 583 l 458 583 l 458 778 l 361 778 z "},"а":{"ha":819,"x_min":69,"x_max":750,"o":"m 458 389 l 361 389 l 361 0 l 69 0 l 69 972 l 750 972 l 750 0 l 458 0 l 458 389 m 361 778 l 361 583 l 458 583 l 458 778 l 361 778 z "},"б":{"ha":819,"x_min":69,"x_max":750,"o":"m 69 972 l 750 972 l 750 778 l 361 778 l 361 583 l 750 583 l 750 0 l 69 0 l 69 972 m 361 389 l 361 194 l 458 194 l 458 389 l 361 389 z "},"в":{"ha":819,"x_min":69,"x_max":750,"o":"m 69 972 l 750 972 l 750 583 l 653 583 l 653 486 l 750 486 l 750 0 l 69 0 l 69 972 m 361 778 l 361 583 l 458 583 l 458 778 l 361 778 m 361 389 l 361 194 l 458 194 l 458 389 l 361 389 z "},"г":{"ha":819,"x_min":69,"x_max":750,"o":"m 69 972 l 750 972 l 750 778 l 361 778 l 361 0 l 69 0 l 69 972 z "},"д":{"ha":1111,"x_min":69,"x_max":1042,"o":"m 847 0 l 264 0 l 264 -194 l 69 -194 l 69 194 l 167 194 l 167 389 l 264 389 l 264 972 l 944 972 l 944 194 l 1042 194 l 1042 -194 l 847 -194 l 847 0 m 556 778 l 556 292 l 458 292 l 458 194 l 653 194 l 653 778 l 556 778 z "},"е":{"ha":819,"x_min":69,"x_max":750,"o":"m 69 972 l 750 972 l 750 778 l 361 778 l 361 583 l 653 583 l 653 389 l 361 389 l 361 194 l 750 194 l 750 0 l 69 0 l 69 972 z "},"ж":{"ha":1208,"x_min":69,"x_max":1139,"o":"m 847 292 l 750 292 l 750 0 l 458 0 l 458 292 l 361 292 l 361 0 l 69 0 l 69 486 l 264 486 l 264 583 l 69 583 l 69 972 l 361 972 l 361 681 l 458 681 l 458 972 l 750 972 l 750 681 l 847 681 l 847 972 l 1139 972 l 1139 583 l 944 583 l 944 486 l 1139 486 l 1139 0 l 847 0 l 847 292 z "},"з":{"ha":819,"x_min":69,"x_max":750,"o":"m 69 194 l 458 194 l 458 389 l 167 389 l 167 583 l 458 583 l 458 778 l 69 778 l 69 972 l 750 972 l 750 583 l 653 583 l 653 486 l 750 486 l 750 0 l 69 0 l 69 194 z "},"и":{"ha":917,"x_min":69,"x_max":847,"o":"m 556 389 l 458 389 l 458 194 l 361 194 l 361 0 l 69 0 l 69 972 l 361 972 l 361 583 l 458 583 l 458 778 l 556 778 l 556 972 l 847 972 l 847 0 l 556 0 l 556 389 z "},"й":{"ha":917,"x_min":69,"x_max":847,"o":"m 215 1264 l 410 1264 l 410 1167 l 507 1167 l 507 1264 l 701 1264 l 701 1042 l 215 1042 l 215 1264 m 556 389 l 458 389 l 458 194 l 361 194 l 361 0 l 69 0 l 69 972 l 361 972 l 361 583 l 458 583 l 458 778 l 556 778 l 556 972 l 847 972 l 847 0 l 556 0 l 556 389 z "},"к":{"ha":819,"x_min":69,"x_max":750,"o":"m 458 292 l 361 292 l 361 0 l 69 0 l 69 972 l 361 972 l 361 681 l 458 681 l 458 972 l 750 972 l 750 583 l 556 583 l 556 486 l 750 486 l 750 0 l 458 0 l 458 292 z "},"л":{"ha":917,"x_min":69,"x_max":847,"o":"m 556 778 l 458 778 l 458 194 l 361 194 l 361 0 l 69 0 l 69 292 l 167 292 l 167 972 l 847 972 l 847 0 l 556 0 l 556 778 z "},"м":{"ha":1111,"x_min":69,"x_max":1042,"o":"m 750 389 l 653 389 l 653 194 l 458 194 l 458 389 l 361 389 l 361 0 l 69 0 l 69 972 l 361 972 l 361 778 l 458 778 l 458 583 l 653 583 l 653 778 l 750 778 l 750 972 l 1042 972 l 1042 0 l 750 0 l 750 389 z "},"н":{"ha":819,"x_min":69,"x_max":750,"o":"m 458 389 l 361 389 l 361 0 l 69 0 l 69 972 l 361 972 l 361 583 l 458 583 l 458 972 l 750 972 l 750 0 l 458 0 l 458 389 z "},"о":{"ha":819,"x_min":69,"x_max":750,"o":"m 69 972 l 750 972 l 750 0 l 69 0 l 69 972 m 361 778 l 361 194 l 458 194 l 458 778 l 361 778 z "},"п":{"ha":819,"x_min":69,"x_max":750,"o":"m 458 778 l 361 778 l 361 0 l 69 0 l 69 972 l 750 972 l 750 0 l 458 0 l 458 778 z "},"р":{"ha":819,"x_min":69,"x_max":750,"o":"m 69 972 l 750 972 l 750 389 l 361 389 l 361 0 l 69 0 l 69 972 m 361 778 l 361 583 l 458 583 l 458 778 l 361 778 z "},"с":{"ha":722,"x_min":69,"x_max":653,"o":"m 69 972 l 653 972 l 653 778 l 361 778 l 361 194 l 653 194 l 653 0 l 69 0 l 69 972 z "},"т":{"ha":819,"x_min":69,"x_max":750,"o":"m 264 778 l 69 778 l 69 972 l 750 972 l 750 778 l 556 778 l 556 0 l 264 0 l 264 778 z "},"у":{"ha":819,"x_min":69,"x_max":750,"o":"m 69 194 l 276 194 l 276 389 l 174 389 l 174 583 l 69 583 l 69 972 l 361 972 l 361 583 l 458 583 l 458 972 l 750 972 l 750 583 l 653 583 l 653 389 l 556 389 l 556 194 l 458 194 l 458 0 l 69 0 l 69 194 z "},"ф":{"ha":1208,"x_min":69,"x_max":1139,"o":"m 750 0 l 458 0 l 458 194 l 69 194 l 69 778 l 458 778 l 458 972 l 750 972 l 750 778 l 1139 778 l 1139 194 l 750 194 l 750 0 m 361 583 l 361 389 l 458 389 l 458 583 l 361 583 m 750 583 l 750 389 l 847 389 l 847 583 l 750 583 z "},"х":{"ha":819,"x_min":69,"x_max":750,"o":"m 458 292 l 361 292 l 361 0 l 69 0 l 69 486 l 264 486 l 264 583 l 69 583 l 69 972 l 361 972 l 361 681 l 458 681 l 458 972 l 750 972 l 750 583 l 556 583 l 556 486 l 750 486 l 750 0 l 458 0 l 458 292 z "},"ц":{"ha":917,"x_min":69,"x_max":847,"o":"m 653 0 l 69 0 l 69 972 l 361 972 l 361 194 l 458 194 l 458 972 l 750 972 l 750 194 l 847 194 l 847 -194 l 653 -194 l 653 0 z "},"ч":{"ha":819,"x_min":69,"x_max":750,"o":"m 458 389 l 69 389 l 69 972 l 361 972 l 361 583 l 458 583 l 458 972 l 750 972 l 750 0 l 458 0 l 458 389 z "},"ш":{"ha":1208,"x_min":69,"x_max":1139,"o":"m 69 972 l 361 972 l 361 194 l 458 194 l 458 972 l 750 972 l 750 194 l 847 194 l 847 972 l 1139 972 l 1139 0 l 69 0 l 69 972 z "},"щ":{"ha":1306,"x_min":69,"x_max":1236,"o":"m 1042 0 l 69 0 l 69 972 l 361 972 l 361 194 l 458 194 l 458 972 l 750 972 l 750 194 l 847 194 l 847 972 l 1139 972 l 1139 194 l 1236 194 l 1236 -194 l 1042 -194 l 1042 0 z "},"ъ":{"ha":1014,"x_min":69,"x_max":944,"o":"m 264 778 l 69 778 l 69 972 l 556 972 l 556 583 l 944 583 l 944 0 l 264 0 l 264 778 m 556 389 l 556 194 l 653 194 l 653 389 l 556 389 z "},"ы":{"ha":1208,"x_min":69,"x_max":1139,"o":"m 69 972 l 361 972 l 361 583 l 750 583 l 750 0 l 69 0 l 69 972 m 847 972 l 1139 972 l 1139 0 l 847 0 l 847 972 m 361 389 l 361 194 l 458 194 l 458 389 l 361 389 z "},"ь":{"ha":819,"x_min":69,"x_max":750,"o":"m 69 972 l 361 972 l 361 583 l 750 583 l 750 0 l 69 0 l 69 972 m 361 389 l 361 194 l 458 194 l 458 389 l 361 389 z "},"э":{"ha":819,"x_min":69,"x_max":750,"o":"m 69 194 l 458 194 l 458 389 l 167 389 l 167 583 l 458 583 l 458 778 l 69 778 l 69 972 l 653 972 l 653 875 l 750 875 l 750 97 l 653 97 l 653 0 l 69 0 l 69 194 z "},"ю":{"ha":1208,"x_min":69,"x_max":1139,"o":"m 458 389 l 361 389 l 361 0 l 69 0 l 69 972 l 361 972 l 361 583 l 458 583 l 458 972 l 1139 972 l 1139 0 l 458 0 l 458 389 m 750 778 l 750 194 l 847 194 l 847 778 l 750 778 z "},"я":{"ha":819,"x_min":69,"x_max":750,"o":"m 458 389 l 361 389 l 361 0 l 69 0 l 69 486 l 167 486 l 167 583 l 69 583 l 69 972 l 750 972 l 750 0 l 458 0 l 458 389 m 361 778 l 361 583 l 458 583 l 458 778 l 361 778 z "},"ѐ":{"ha":819,"x_min":69,"x_max":750,"o":"m 361 1139 l 264 1139 l 264 1333 l 458 1333 l 458 1236 l 556 1236 l 556 1042 l 361 1042 l 361 1139 m 69 972 l 750 972 l 750 778 l 361 778 l 361 583 l 653 583 l 653 389 l 361 389 l 361 194 l 750 194 l 750 0 l 69 0 l 69 972 z "},"ё":{"ha":819,"x_min":69,"x_max":750,"o":"m 167 1236 l 361 1236 l 361 1042 l 167 1042 l 167 1236 m 458 1236 l 653 1236 l 653 1042 l 458 1042 l 458 1236 m 69 972 l 750 972 l 750 778 l 361 778 l 361 583 l 653 583 l 653 389 l 361 389 l 361 194 l 750 194 l 750 0 l 69 0 l 69 972 z "},"ђ":{"ha":1111,"x_min":69,"x_max":1042,"o":"m 931 0 l 653 0 l 653 194 l 750 194 l 750 389 l 556 389 l 556 0 l 264 0 l 264 778 l 69 778 l 69 972 l 750 972 l 750 778 l 556 778 l 556 583 l 1042 583 l 1042 97 l 931 97 l 931 0 z "},"ѓ":{"ha":819,"x_min":69,"x_max":750,"o":"m 507 1042 l 313 1042 l 313 1236 l 410 1236 l 410 1333 l 604 1333 l 604 1139 l 507 1139 l 507 1042 m 69 972 l 750 972 l 750 778 l 361 778 l 361 0 l 69 0 l 69 972 z "},"є":{"ha":819,"x_min":69,"x_max":750,"o":"m 167 97 l 69 97 l 69 875 l 167 875 l 167 972 l 750 972 l 750 778 l 361 778 l 361 583 l 653 583 l 653 389 l 361 389 l 361 194 l 750 194 l 750 0 l 167 0 l 167 97 z "},"ѕ":{"ha":819,"x_min":69,"x_max":750,"o":"m 69 194 l 458 194 l 458 389 l 69 389 l 69 972 l 750 972 l 750 778 l 361 778 l 361 583 l 750 583 l 750 0 l 69 0 l 69 194 z "},"і":{"ha":431,"x_min":69,"x_max":361,"o":"m 69 972 l 361 972 l 361 0 l 69 0 l 69 972 z "},"ї":{"ha":431,"x_min":-28,"x_max":458,"o":"m -28 1236 l 167 1236 l 167 1042 l -28 1042 l -28 1236 m 264 1236 l 458 1236 l 458 1042 l 264 1042 l 264 1236 m 69 972 l 361 972 l 361 0 l 69 0 l 69 972 z "},"ј":{"ha":819,"x_min":69,"x_max":750,"o":"m 69 389 l 361 389 l 361 194 l 458 194 l 458 972 l 750 972 l 750 0 l 69 0 l 69 389 z "},"љ":{"ha":1306,"x_min":69,"x_max":1236,"o":"m 556 778 l 458 778 l 458 194 l 361 194 l 361 0 l 69 0 l 69 292 l 167 292 l 167 972 l 847 972 l 847 583 l 1236 583 l 1236 0 l 556 0 l 556 778 m 847 389 l 847 194 l 944 194 l 944 389 l 847 389 z "},"њ":{"ha":1208,"x_min":69,"x_max":1139,"o":"m 458 389 l 361 389 l 361 0 l 69 0 l 69 972 l 361 972 l 361 583 l 458 583 l 458 972 l 750 972 l 750 583 l 1139 583 l 1139 0 l 458 0 l 458 389 m 750 389 l 750 194 l 847 194 l 847 389 l 750 389 z "},"ћ":{"ha":1014,"x_min":69,"x_max":944,"o":"m 653 389 l 556 389 l 556 0 l 264 0 l 264 778 l 69 778 l 69 972 l 750 972 l 750 778 l 556 778 l 556 583 l 944 583 l 944 0 l 653 0 l 653 389 z "},"ќ":{"ha":819,"x_min":69,"x_max":750,"o":"m 507 1042 l 313 1042 l 313 1236 l 410 1236 l 410 1333 l 604 1333 l 604 1139 l 507 1139 l 507 1042 m 458 292 l 361 292 l 361 0 l 69 0 l 69 972 l 361 972 l 361 681 l 458 681 l 458 972 l 750 972 l 750 583 l 556 583 l 556 486 l 750 486 l 750 0 l 458 0 l 458 292 z "},"ѝ":{"ha":917,"x_min":69,"x_max":847,"o":"m 410 1139 l 313 1139 l 313 1333 l 507 1333 l 507 1236 l 604 1236 l 604 1042 l 410 1042 l 410 1139 m 556 389 l 458 389 l 458 194 l 361 194 l 361 0 l 69 0 l 69 972 l 361 972 l 361 583 l 458 583 l 458 778 l 556 778 l 556 972 l 847 972 l 847 0 l 556 0 l 556 389 z "},"ў":{"ha":819,"x_min":69,"x_max":750,"o":"m 167 1264 l 361 1264 l 361 1167 l 458 1167 l 458 1264 l 653 1264 l 653 1042 l 167 1042 l 167 1264 m 69 194 l 276 194 l 276 389 l 174 389 l 174 583 l 69 583 l 69 972 l 361 972 l 361 583 l 458 583 l 458 972 l 750 972 l 750 583 l 653 583 l 653 389 l 556 389 l 556 194 l 458 194 l 458 0 l 69 0 l 69 194 z "},"џ":{"ha":819,"x_min":69,"x_max":750,"o":"m 507 -194 l 313 -194 l 313 0 l 69 0 l 69 972 l 361 972 l 361 194 l 458 194 l 458 972 l 750 972 l 750 0 l 507 0 l 507 -194 z "},"Ґ":{"ha":819,"x_min":69,"x_max":750,"o":"m 361 0 l 69 0 l 69 972 l 556 972 l 556 1167 l 750 1167 l 750 778 l 361 778 l 361 0 z "},"ґ":{"ha":819,"x_min":69,"x_max":750,"o":"m 361 0 l 69 0 l 69 972 l 556 972 l 556 1167 l 750 1167 l 750 778 l 361 778 l 361 0 z "},"Ḃ":{"ha":819,"x_min":69,"x_max":750,"o":"m 313 1236 l 507 1236 l 507 1042 l 313 1042 l 313 1236 m 69 972 l 750 972 l 750 583 l 653 583 l 653 486 l 750 486 l 750 0 l 69 0 l 69 972 m 361 778 l 361 583 l 458 583 l 458 778 l 361 778 m 361 389 l 361 194 l 458 194 l 458 389 l 361 389 z "},"ḃ":{"ha":819,"x_min":69,"x_max":750,"o":"m 313 1236 l 507 1236 l 507 1042 l 313 1042 l 313 1236 m 69 972 l 750 972 l 750 583 l 653 583 l 653 486 l 750 486 l 750 0 l 69 0 l 69 972 m 361 778 l 361 583 l 458 583 l 458 778 l 361 778 m 361 389 l 361 194 l 458 194 l 458 389 l 361 389 z "},"Ḋ":{"ha":819,"x_min":69,"x_max":750,"o":"m 313 1236 l 507 1236 l 507 1042 l 313 1042 l 313 1236 m 69 972 l 653 972 l 653 875 l 750 875 l 750 97 l 653 97 l 653 0 l 69 0 l 69 972 m 361 778 l 361 194 l 458 194 l 458 778 l 361 778 z "},"ḋ":{"ha":819,"x_min":69,"x_max":750,"o":"m 313 1236 l 507 1236 l 507 1042 l 313 1042 l 313 1236 m 69 972 l 653 972 l 653 875 l 750 875 l 750 97 l 653 97 l 653 0 l 69 0 l 69 972 m 361 778 l 361 194 l 458 194 l 458 778 l 361 778 z "},"Ḟ":{"ha":819,"x_min":69,"x_max":750,"o":"m 313 1236 l 507 1236 l 507 1042 l 313 1042 l 313 1236 m 69 972 l 750 972 l 750 778 l 361 778 l 361 583 l 653 583 l 653 389 l 361 389 l 361 0 l 69 0 l 69 972 z "},"ḟ":{"ha":819,"x_min":69,"x_max":750,"o":"m 313 1236 l 507 1236 l 507 1042 l 313 1042 l 313 1236 m 69 972 l 750 972 l 750 778 l 361 778 l 361 583 l 653 583 l 653 389 l 361 389 l 361 0 l 69 0 l 69 972 z "},"Ḣ":{"ha":819,"x_min":69,"x_max":750,"o":"m 313 1236 l 507 1236 l 507 1042 l 313 1042 l 313 1236 m 458 389 l 361 389 l 361 0 l 69 0 l 69 972 l 361 972 l 361 583 l 458 583 l 458 972 l 750 972 l 750 0 l 458 0 l 458 389 z "},"ḣ":{"ha":819,"x_min":69,"x_max":750,"o":"m 313 1236 l 507 1236 l 507 1042 l 313 1042 l 313 1236 m 458 389 l 361 389 l 361 0 l 69 0 l 69 972 l 361 972 l 361 583 l 458 583 l 458 972 l 750 972 l 750 0 l 458 0 l 458 389 z "},"Ḱ":{"ha":819,"x_min":69,"x_max":750,"o":"m 507 1042 l 313 1042 l 313 1236 l 410 1236 l 410 1333 l 604 1333 l 604 1139 l 507 1139 l 507 1042 m 458 292 l 361 292 l 361 0 l 69 0 l 69 972 l 361 972 l 361 681 l 458 681 l 458 972 l 750 972 l 750 583 l 556 583 l 556 486 l 750 486 l 750 0 l 458 0 l 458 292 z "},"ḱ":{"ha":819,"x_min":69,"x_max":750,"o":"m 507 1042 l 313 1042 l 313 1236 l 410 1236 l 410 1333 l 604 1333 l 604 1139 l 507 1139 l 507 1042 m 458 292 l 361 292 l 361 0 l 69 0 l 69 972 l 361 972 l 361 681 l 458 681 l 458 972 l 750 972 l 750 583 l 556 583 l 556 486 l 750 486 l 750 0 l 458 0 l 458 292 z "},"Ṁ":{"ha":1111,"x_min":69,"x_max":1042,"o":"m 458 1236 l 653 1236 l 653 1042 l 458 1042 l 458 1236 m 750 389 l 653 389 l 653 194 l 458 194 l 458 389 l 361 389 l 361 0 l 69 0 l 69 972 l 361 972 l 361 778 l 458 778 l 458 583 l 653 583 l 653 778 l 750 778 l 750 972 l 1042 972 l 1042 0 l 750 0 l 750 389 z "},"ṁ":{"ha":1111,"x_min":69,"x_max":1042,"o":"m 458 1236 l 653 1236 l 653 1042 l 458 1042 l 458 1236 m 750 389 l 653 389 l 653 194 l 458 194 l 458 389 l 361 389 l 361 0 l 69 0 l 69 972 l 361 972 l 361 778 l 458 778 l 458 583 l 653 583 l 653 778 l 750 778 l 750 972 l 1042 972 l 1042 0 l 750 0 l 750 389 z "},"Ṗ":{"ha":819,"x_min":69,"x_max":750,"o":"m 313 1236 l 507 1236 l 507 1042 l 313 1042 l 313 1236 m 69 972 l 750 972 l 750 389 l 361 389 l 361 0 l 69 0 l 69 972 m 361 778 l 361 583 l 458 583 l 458 778 l 361 778 z "},"ṗ":{"ha":819,"x_min":69,"x_max":750,"o":"m 313 1236 l 507 1236 l 507 1042 l 313 1042 l 313 1236 m 69 972 l 750 972 l 750 389 l 361 389 l 361 0 l 69 0 l 69 972 m 361 778 l 361 583 l 458 583 l 458 778 l 361 778 z "},"Ṡ":{"ha":819,"x_min":69,"x_max":750,"o":"m 313 1236 l 507 1236 l 507 1042 l 313 1042 l 313 1236 m 69 194 l 458 194 l 458 389 l 69 389 l 69 972 l 750 972 l 750 778 l 361 778 l 361 583 l 750 583 l 750 0 l 69 0 l 69 194 z "},"ṡ":{"ha":819,"x_min":69,"x_max":750,"o":"m 313 1236 l 507 1236 l 507 1042 l 313 1042 l 313 1236 m 69 194 l 458 194 l 458 389 l 69 389 l 69 972 l 750 972 l 750 778 l 361 778 l 361 583 l 750 583 l 750 0 l 69 0 l 69 194 z "},"Ṫ":{"ha":819,"x_min":69,"x_max":750,"o":"m 313 1236 l 507 1236 l 507 1042 l 313 1042 l 313 1236 m 264 778 l 69 778 l 69 972 l 750 972 l 750 778 l 556 778 l 556 0 l 264 0 l 264 778 z "},"ṫ":{"ha":819,"x_min":69,"x_max":750,"o":"m 313 1236 l 507 1236 l 507 1042 l 313 1042 l 313 1236 m 264 778 l 69 778 l 69 972 l 750 972 l 750 778 l 556 778 l 556 0 l 264 0 l 264 778 z "},"Ẁ":{"ha":1111,"x_min":69,"x_max":1042,"o":"m 458 1139 l 361 1139 l 361 1333 l 556 1333 l 556 1236 l 653 1236 l 653 1042 l 458 1042 l 458 1139 m 653 292 l 458 292 l 458 0 l 167 0 l 167 194 l 69 194 l 69 972 l 361 972 l 361 486 l 458 486 l 458 681 l 653 681 l 653 486 l 750 486 l 750 972 l 1042 972 l 1042 194 l 944 194 l 944 0 l 653 0 l 653 292 z "},"ẁ":{"ha":1111,"x_min":69,"x_max":1042,"o":"m 458 1139 l 361 1139 l 361 1333 l 556 1333 l 556 1236 l 653 1236 l 653 1042 l 458 1042 l 458 1139 m 653 292 l 458 292 l 458 0 l 167 0 l 167 194 l 69 194 l 69 972 l 361 972 l 361 486 l 458 486 l 458 681 l 653 681 l 653 486 l 750 486 l 750 972 l 1042 972 l 1042 194 l 944 194 l 944 0 l 653 0 l 653 292 z "},"Ẃ":{"ha":1111,"x_min":69,"x_max":1042,"o":"m 653 1042 l 458 1042 l 458 1236 l 556 1236 l 556 1333 l 750 1333 l 750 1139 l 653 1139 l 653 1042 m 653 292 l 458 292 l 458 0 l 167 0 l 167 194 l 69 194 l 69 972 l 361 972 l 361 486 l 458 486 l 458 681 l 653 681 l 653 486 l 750 486 l 750 972 l 1042 972 l 1042 194 l 944 194 l 944 0 l 653 0 l 653 292 z "},"ẃ":{"ha":1111,"x_min":69,"x_max":1042,"o":"m 653 1042 l 458 1042 l 458 1236 l 556 1236 l 556 1333 l 750 1333 l 750 1139 l 653 1139 l 653 1042 m 653 292 l 458 292 l 458 0 l 167 0 l 167 194 l 69 194 l 69 972 l 361 972 l 361 486 l 458 486 l 458 681 l 653 681 l 653 486 l 750 486 l 750 972 l 1042 972 l 1042 194 l 944 194 l 944 0 l 653 0 l 653 292 z "},"Ẅ":{"ha":1111,"x_min":69,"x_max":1042,"o":"m 313 1236 l 507 1236 l 507 1042 l 313 1042 l 313 1236 m 604 1236 l 799 1236 l 799 1042 l 604 1042 l 604 1236 m 653 292 l 458 292 l 458 0 l 167 0 l 167 194 l 69 194 l 69 972 l 361 972 l 361 486 l 458 486 l 458 681 l 653 681 l 653 486 l 750 486 l 750 972 l 1042 972 l 1042 194 l 944 194 l 944 0 l 653 0 l 653 292 z "},"ẅ":{"ha":1111,"x_min":69,"x_max":1042,"o":"m 313 1236 l 507 1236 l 507 1042 l 313 1042 l 313 1236 m 604 1236 l 799 1236 l 799 1042 l 604 1042 l 604 1236 m 653 292 l 458 292 l 458 0 l 167 0 l 167 194 l 69 194 l 69 972 l 361 972 l 361 486 l 458 486 l 458 681 l 653 681 l 653 486 l 750 486 l 750 972 l 1042 972 l 1042 194 l 944 194 l 944 0 l 653 0 l 653 292 z "},"ẞ":{"ha":819,"x_min":69,"x_max":750,"o":"m 458 778 l 361 778 l 361 0 l 69 0 l 69 875 l 167 875 l 167 972 l 750 972 l 750 486 l 653 486 l 653 389 l 750 389 l 750 97 l 653 97 l 653 0 l 458 0 l 458 778 z "},"Ỳ":{"ha":819,"x_min":69,"x_max":750,"o":"m 313 1139 l 215 1139 l 215 1333 l 410 1333 l 410 1236 l 507 1236 l 507 1042 l 313 1042 l 313 1139 m 264 486 l 69 486 l 69 972 l 361 972 l 361 681 l 458 681 l 458 972 l 750 972 l 750 486 l 556 486 l 556 0 l 264 0 l 264 486 z "},"ỳ":{"ha":819,"x_min":69,"x_max":750,"o":"m 313 1139 l 215 1139 l 215 1333 l 410 1333 l 410 1236 l 507 1236 l 507 1042 l 313 1042 l 313 1139 m 264 486 l 69 486 l 69 972 l 361 972 l 361 681 l 458 681 l 458 972 l 750 972 l 750 486 l 556 486 l 556 0 l 264 0 l 264 486 z "},"–":{"ha":722,"x_min":69,"x_max":653,"o":"m 69 583 l 653 583 l 653 389 l 69 389 l 69 583 z "},"—":{"ha":1111,"x_min":69,"x_max":1042,"o":"m 69 583 l 1042 583 l 1042 389 l 69 389 l 69 583 z "},"―":{"ha":1389,"x_min":69,"x_max":1319,"o":"m 69 583 l 1319 583 l 1319 389 l 69 389 l 69 583 z "},"‘":{"ha":431,"x_min":69,"x_max":361,"o":"m 69 972 l 264 972 l 264 778 l 361 778 l 361 486 l 69 486 l 69 972 z "},"’":{"ha":431,"x_min":69,"x_max":361,"o":"m 167 681 l 69 681 l 69 972 l 361 972 l 361 486 l 167 486 l 167 681 z "},"‚":{"ha":431,"x_min":69,"x_max":361,"o":"m 167 0 l 69 0 l 69 292 l 361 292 l 361 -194 l 167 -194 l 167 0 z "},"“":{"ha":819,"x_min":69,"x_max":750,"o":"m 69 972 l 264 972 l 264 778 l 361 778 l 361 486 l 69 486 l 69 972 m 458 972 l 653 972 l 653 778 l 750 778 l 750 486 l 458 486 l 458 972 z "},"”":{"ha":819,"x_min":69,"x_max":750,"o":"m 167 681 l 69 681 l 69 972 l 361 972 l 361 486 l 167 486 l 167 681 m 556 681 l 458 681 l 458 972 l 750 972 l 750 486 l 556 486 l 556 681 z "},"„":{"ha":819,"x_min":69,"x_max":750,"o":"m 167 0 l 69 0 l 69 292 l 361 292 l 361 -194 l 167 -194 l 167 0 m 556 0 l 458 0 l 458 292 l 750 292 l 750 -194 l 556 -194 l 556 0 z "},"†":{"ha":819,"x_min":69,"x_max":750,"o":"m 264 583 l 69 583 l 69 778 l 264 778 l 264 972 l 556 972 l 556 778 l 750 778 l 750 583 l 556 583 l 556 0 l 264 0 l 264 583 z "},"‡":{"ha":819,"x_min":69,"x_max":750,"o":"m 264 194 l 69 194 l 69 389 l 264 389 l 264 583 l 69 583 l 69 778 l 264 778 l 264 972 l 556 972 l 556 778 l 750 778 l 750 583 l 556 583 l 556 389 l 750 389 l 750 194 l 556 194 l 556 0 l 264 0 l 264 194 z "},"•":{"ha":528,"x_min":69,"x_max":458,"o":"m 69 681 l 458 681 l 458 292 l 69 292 l 69 681 z "},"…":{"ha":1208,"x_min":69,"x_max":1139,"o":"m 69 292 l 361 292 l 361 0 l 69 0 l 69 292 m 458 292 l 750 292 l 750 0 l 458 0 l 458 292 m 847 292 l 1139 292 l 1139 0 l 847 0 l 847 292 z "},"‰":{"ha":1160,"x_min":69,"x_max":1090,"o":"m 69 292 l 264 292 l 264 486 l 458 486 l 458 778 l 653 778 l 653 972 l 944 972 l 944 681 l 750 681 l 750 486 l 556 486 l 556 194 l 361 194 l 361 0 l 69 0 l 69 292 m 69 972 l 361 972 l 361 681 l 69 681 l 69 972 m 653 292 l 1090 292 l 1090 0 l 653 0 l 653 292 z "},"‹":{"ha":625,"x_min":69,"x_max":556,"o":"m 361 292 l 214 292 l 214 389 l 69 389 l 69 583 l 214 583 l 214 681 l 361 681 l 361 778 l 556 778 l 556 632 l 458 632 l 458 535 l 361 535 l 361 438 l 458 438 l 458 389 l 556 389 l 556 194 l 361 194 l 361 292 z "},"›":{"ha":625,"x_min":69,"x_max":556,"o":"m 411 292 l 264 292 l 264 194 l 69 194 l 69 389 l 167 389 l 167 438 l 264 438 l 264 535 l 167 535 l 167 632 l 69 632 l 69 778 l 264 778 l 264 681 l 411 681 l 411 583 l 556 583 l 556 389 l 411 389 l 411 292 z "},"⁄":{"ha":1014,"x_min":69,"x_max":944,"o":"m 69 292 l 264 292 l 264 486 l 458 486 l 458 778 l 653 778 l 653 972 l 944 972 l 944 681 l 750 681 l 750 486 l 556 486 l 556 194 l 361 194 l 361 0 l 69 0 l 69 292 z "},"€":{"ha":819,"x_min":69,"x_max":750,"o":"m 264 97 l 167 97 l 167 389 l 69 389 l 69 583 l 167 583 l 167 875 l 264 875 l 264 972 l 750 972 l 750 778 l 458 778 l 458 583 l 750 583 l 750 389 l 458 389 l 458 194 l 750 194 l 750 0 l 264 0 l 264 97 z "},"™":{"ha":1403,"x_min":69,"x_max":1333,"o":"m 215 875 l 69 875 l 69 972 l 556 972 l 556 875 l 410 875 l 410 486 l 215 486 l 215 875 m 1139 681 l 1042 681 l 1042 583 l 944 583 l 944 681 l 847 681 l 847 486 l 653 486 l 653 972 l 847 972 l 847 875 l 944 875 l 944 778 l 1042 778 l 1042 875 l 1139 875 l 1139 972 l 1333 972 l 1333 486 l 1139 486 l 1139 681 z "},"Ω":{"ha":1014,"x_min":69,"x_max":944,"o":"m 556 389 l 653 389 l 653 778 l 361 778 l 361 389 l 458 389 l 458 0 l 69 0 l 69 194 l 264 194 l 264 292 l 69 292 l 69 972 l 944 972 l 944 292 l 750 292 l 750 194 l 944 194 l 944 0 l 556 0 l 556 389 z "},"∆":{"ha":819,"x_min":69,"x_max":750,"o":"m 69 583 l 167 583 l 167 778 l 264 778 l 264 972 l 556 972 l 556 778 l 653 778 l 653 583 l 750 583 l 750 0 l 69 0 l 69 583 m 361 486 l 361 194 l 458 194 l 458 486 l 361 486 z "},"∏":{"ha":819,"x_min":69,"x_max":750,"o":"m 458 778 l 361 778 l 361 0 l 69 0 l 69 972 l 750 972 l 750 0 l 458 0 l 458 778 z "},"∑":{"ha":819,"x_min":69,"x_max":750,"o":"m 69 389 l 264 389 l 264 583 l 69 583 l 69 972 l 750 972 l 750 778 l 410 778 l 410 681 l 507 681 l 507 583 l 653 583 l 653 389 l 507 389 l 507 292 l 410 292 l 410 194 l 750 194 l 750 0 l 69 0 l 69 389 z "},"−":{"ha":722,"x_min":69,"x_max":653,"o":"m 69 583 l 653 583 l 653 389 l 69 389 l 69 583 z "},"∞":{"ha":1111,"x_min":69,"x_max":1042,"o":"m 896 139 l 604 139 l 604 236 l 507 236 l 507 139 l 215 139 l 215 236 l 69 236 l 69 736 l 215 736 l 215 833 l 507 833 l 507 736 l 604 736 l 604 833 l 896 833 l 896 736 l 1042 736 l 1042 236 l 896 236 l 896 139 m 264 542 l 264 431 l 458 431 l 458 542 l 264 542 m 653 542 l 653 431 l 847 431 l 847 542 l 653 542 z "},"◊":{"ha":819,"x_min":69,"x_max":750,"o":"m 264 97 l 167 97 l 167 292 l 69 292 l 69 681 l 167 681 l 167 875 l 264 875 l 264 972 l 556 972 l 556 875 l 653 875 l 653 681 l 750 681 l 750 292 l 653 292 l 653 97 l 556 97 l 556 0 l 264 0 l 264 97 m 583 389 l 583 583 l 458 583 l 458 778 l 361 778 l 361 583 l 236 583 l 236 389 l 361 389 l 361 194 l 458 194 l 458 389 l 583 389 z "},"":{"ha":0,"x_min":-361,"x_max":-69,"o":"m -264 -264 l -361 -264 l -361 -69 l -69 -69 l -69 -347 l -264 -347 l -264 -264 z "},"ﬁ":{"ha":1250,"x_min":69,"x_max":1181,"o":"m 69 972 l 750 972 l 750 778 l 361 778 l 361 583 l 653 583 l 653 389 l 361 389 l 361 0 l 69 0 l 69 972 m 889 972 l 1181 972 l 1181 0 l 889 0 l 889 972 z "},"ﬂ":{"ha":1542,"x_min":69,"x_max":1472,"o":"m 69 972 l 750 972 l 750 778 l 361 778 l 361 583 l 653 583 l 653 389 l 361 389 l 361 0 l 69 0 l 69 972 m 889 972 l 1181 972 l 1181 194 l 1472 194 l 1472 0 l 889 0 l 889 972 z "}}}
